<?xml version="1.0" standalone="no"?>
<!DOCTYPE svg PUBLIC "-//W3C//DTD SVG 1.1//EN" "http://www.w3.org/Graphics/SVG/1.1/DTD/svg11.dtd" >
<svg xmlns="http://www.w3.org/2000/svg" xmlns:xlink="http://www.w3.org/1999/xlink" version="1.1">
<metadata></metadata>
<defs>
<font id="bowhouselight" horiz-adv-x="405" >
<font-face units-per-em="2048" ascent="1378" descent="-670" />
<missing-glyph horiz-adv-x="512" />
<glyph horiz-adv-x="0" />
<glyph horiz-adv-x="682" />
<glyph unicode="&#xa;" />
<glyph unicode=" "  horiz-adv-x="512" />
<glyph unicode="&#x09;" horiz-adv-x="512" />
<glyph unicode="&#xa0;" horiz-adv-x="512" />
<glyph unicode="!" horiz-adv-x="200" d="M0 0v104q0 11 10 11q13 0 13 -11v-104q0 -8 -13 -8q-10 0 -10 8zM0 281v841q0 13 10 13q13 0 13 -13v-841q0 -11 -13 -11q-10 0 -10 11z" />
<glyph unicode="$" horiz-adv-x="802" d="M2 322q0 12 12 12q5 0 9 -4t4 -8q0 -120 82 -206.5t200 -90.5v593q-128 5 -217.5 98t-89.5 222q0 133 94 227.5t226 94.5q133 0 227 -94t94 -228q0 -4 -3.5 -8t-8.5 -4t-9 4t-4 8q0 120 -82.5 206t-201.5 91v-594q129 -5 219 -97.5t90 -221.5q0 -134 -94 -228t-227 -94 q-132 0 -226 94.5t-94 227.5zM27 938q0 -119 82 -205t200 -90v592q-118 -4 -200 -90.5t-82 -206.5zM334 25q119 5 201.5 91t82.5 206t-82.5 204.5t-201.5 89.5v-591z" />
<glyph unicode="%" />
<glyph unicode="," horiz-adv-x="237" d="M8 -72q-7 10 4 17l2 1l4 4l5 5t5.5 7t5 10t4.5 12.5t3.5 15t1.5 18.5v115q0 5 3.5 8.5t8.5 3.5q13 0 13 -12v-115q0 -30 -11 -53.5t-20 -32t-12 -8.5q-2 -2 -7 -2q-7 0 -10 6z" />
<glyph unicode="." horiz-adv-x="225" d="M0 18v115q0 5 4 8.5t8 3.5q13 0 13 -12v-115q0 -12 -13 -12q-4 0 -8 4t-4 8z" />
<glyph unicode="0" horiz-adv-x="972" d="M166 322v616q0 134 94 228t227 94q132 0 226 -94.5t94 -227.5v-616q0 -133 -94 -227.5t-226 -94.5q-133 0 -227 94t-94 228zM190 315q2 -120 89 -205t208 -85q122 0 208.5 87t86.5 210v587zM190 350l592 594q-2 120 -88 205.5t-207 85.5q-123 0 -210 -87t-87 -210v-588z " />
<glyph unicode="1" horiz-adv-x="972" d="M168 623q-8 8 0 16l620 616q6 6 13 2q8 -3 8 -12v-1229q0 -12 -12 -12q-13 0 -13 12v1201l-598 -594q-11 -7 -18 0z" />
<glyph unicode="2" horiz-adv-x="972" d="M166 940q0 134 94 228t227 94q132 0 226 -94.5t94 -227.5q0 -4 -2 -6l-604 -907h594q12 0 12 -13q0 -12 -12 -12h-617q-7 0 -10 6q-4 8 0 15l614 921q-2 122 -88 207.5t-207 85.5q-123 0 -210 -87t-87 -210q0 -4 -4 -8t-8 -4t-8 4t-4 8z" />
<glyph unicode="3" horiz-adv-x="972" d="M166 322q0 4 4 8t8 4t8 -4t4 -8q0 -123 87 -210t210 -87q122 0 208.5 87t86.5 210t-86.5 209.5t-208.5 86.5q-12 0 -12 13q0 12 12 12q121 0 208 86.5t87 208.5q0 123 -86.5 210t-208.5 87q-123 0 -210 -87t-87 -210q0 -4 -4 -8t-8 -4t-8 4t-4 8q0 134 94 228t227 94 q132 0 226 -94.5t94 -227.5q0 -108 -65.5 -193.5t-166.5 -113.5q101 -30 166.5 -115.5t65.5 -193.5q0 -133 -94 -227.5t-226 -94.5q-133 0 -227 94t-94 228z" />
<glyph unicode="4" horiz-adv-x="972" d="M168 315q-3 7 0 13l616 925q7 11 15 7q8 -3 8 -13v-1235q0 -12 -12 -12q-5 0 -9 4t-4 8v297h-604q-7 0 -10 6zM201 334h581v872z" />
<glyph unicode="5" horiz-adv-x="972" d="M166 322q0 4 4 8t8 4t8 -4t4 -8q0 -123 87 -210t210 -87q122 0 208.5 87t86.5 210v309q0 121 -87 208t-208 87q-123 0 -210 -86.5t-87 -208.5q0 -13 -12 -13t-12 13v661q0 13 12 13h617q12 0 12 -13q0 -12 -12 -12h-605v-526q37 88 118 142t179 54q132 0 226 -93.5 t94 -225.5v-309q0 -133 -94 -227.5t-226 -94.5q-133 0 -227 94t-94 228z" />
<glyph unicode="6" horiz-adv-x="972" d="M166 322v616q0 134 94 228t227 94q132 0 226 -94.5t94 -227.5q0 -12 -12 -12q-5 0 -9 4t-4 8q0 123 -86.5 210t-208.5 87q-123 0 -210 -87t-87 -210v-494q37 89 118 144t179 55q132 0 226 -94.5t94 -226.5q0 -133 -94 -227.5t-226 -94.5q-133 0 -227 94t-94 228zM190 322 q0 -123 87 -210t210 -87q122 0 208.5 87t86.5 210t-86.5 209.5t-208.5 86.5q-123 0 -210 -86.5t-87 -209.5z" />
<glyph unicode="7" horiz-adv-x="972" d="M166 18l610 1219h-598q-4 0 -8 3.5t-4 8.5t4 9t8 4h617q5 0 12 -7q3 -6 0 -12l-619 -1235q-3 -6 -10 -6h-6q-10 7 -6 16z" />
<glyph unicode="8" horiz-adv-x="972" d="M166 322q0 108 65.5 194t167.5 115q-102 28 -167.5 113.5t-65.5 193.5q0 134 94 228t227 94q132 0 226 -94.5t94 -227.5q0 -108 -65.5 -193.5t-166.5 -113.5q101 -30 166.5 -115.5t65.5 -193.5q0 -133 -94 -227.5t-226 -94.5q-133 0 -227 94t-94 228zM190 322 q0 -123 87 -210t210 -87q122 0 208.5 87t86.5 210t-86.5 209.5t-208.5 86.5q-123 0 -210 -86.5t-87 -209.5zM190 938q0 -122 87 -208.5t210 -86.5q121 0 208 86.5t87 208.5q0 123 -86.5 210t-208.5 87q-123 0 -210 -87t-87 -210z" />
<glyph unicode="9" horiz-adv-x="972" d="M166 322q0 4 4 8t8 4t8 -4t4 -8q0 -123 87 -210t210 -87q122 0 208.5 87t86.5 210v493q-36 -89 -116 -143t-179 -54q-133 0 -227 94t-94 226q0 134 94 228t227 94q132 0 226 -94.5t94 -227.5v-616q0 -133 -94 -227.5t-226 -94.5q-133 0 -227 94t-94 228zM190 938 q0 -122 87 -208.5t210 -86.5q121 0 208 86.5t87 208.5q0 123 -86.5 210t-208.5 87q-123 0 -210 -87t-87 -210z" />
<glyph unicode=":" horiz-adv-x="208" d="M0 18v115q0 5 4 8.5t8 3.5q5 0 9 -4t4 -8v-115q0 -4 -4 -8t-9 -4q-4 0 -8 4t-4 8zM0 328v114q0 5 4 9t8 4t8.5 -4.5t4.5 -8.5v-114q0 -13 -13 -13q-12 0 -12 13z" />
<glyph unicode=";" horiz-adv-x="247" d="M6 -72q-7 10 4 17l3 3q3 3 8 8.5t9.5 13.5t7.5 20.5t3 27.5v115q0 5 3.5 8.5t8.5 3.5t9 -4t4 -8v-115q0 -30 -11 -53.5t-20 -32t-12 -8.5q-2 -2 -7 -2q-7 0 -10 6zM41 328v114q0 5 4 9t8 4q5 0 9 -4.5t4 -8.5v-114q0 -4 -4 -8.5t-9 -4.5q-4 0 -8 4t-4 9z" />
<glyph unicode="&#x3c;" />
<glyph unicode="?" horiz-adv-x="704" d="M0 -25q0 11 10 11q13 0 13 -11v-104q0 -10 -13 -10q-10 0 -10 10v104zM0 150q0 121 85.5 206.5t207.5 85.5q110 0 189 79.5t79 189.5q0 112 -78.5 191t-189.5 79q-113 0 -191.5 -78.5t-78.5 -191.5q0 -11 -13 -11q-10 0 -10 11q0 121 86 207t207 86q120 0 205.5 -86 t85.5 -207q0 -120 -85.5 -205.5t-205.5 -85.5q-113 0 -191.5 -79t-78.5 -191q0 -11 -13 -11q-10 0 -10 11z" />
<glyph unicode="@" horiz-adv-x="808" d="M0 12v926q0 134 92.5 228t224.5 94q133 0 227.5 -94t94.5 -228v-688q0 -74 -41.5 -135.5t-108.5 -91.5q0 -3 -2 -3q-52 -20 -100 -20q-103 0 -176.5 73.5t-73.5 176.5v688q0 75 52.5 127.5t127.5 52.5q74 0 126.5 -52.5t52.5 -127.5v-885q54 30 86 82.5t32 114.5v688 q0 123 -87 210t-210 87t-208.5 -87t-85.5 -210v-926q0 -4 -4 -8t-9 -4q-10 0 -10 12zM162 250q0 -93 66 -159t159 -66q44 0 84 16v897q0 64 -45.5 110t-108.5 46q-64 0 -109.5 -45.5t-45.5 -110.5v-688z" />
<glyph unicode="A" horiz-adv-x="819" d="M2 12v926q0 134 94 228t228 94q132 0 226.5 -94.5t94.5 -227.5v-926q0 -4 -3.5 -8t-8.5 -4q-6 0 -10.5 3.5t-4.5 8.5v297h-591v-297q0 -4 -4 -8t-9 -4q-4 0 -8 4t-4 8zM27 334h591v604q0 123 -85.5 210t-208.5 87t-210 -87t-87 -210v-604z" />
<glyph unicode="B" horiz-adv-x="811" d="M2 14v1235q0 13 12 13h310q132 0 225.5 -94.5t93.5 -227.5q0 -108 -65 -193.5t-166 -113.5q101 -30 166 -115.5t65 -193.5q0 -133 -93.5 -227.5t-225.5 -94.5h-310q-4 0 -8 4t-4 8zM27 27h297q122 0 208 87t86 210t-86 210t-208 87q-13 0 -13 12t13 12q121 0 207.5 86.5 t86.5 208.5q0 123 -86 210t-208 87h-297v-1210z" />
<glyph unicode="C" horiz-adv-x="765" d="M0 322v616q0 133 93.5 227.5t225.5 94.5q133 0 227.5 -94t94.5 -228q0 -4 -3.5 -8t-8.5 -4t-9 4t-4 8q0 123 -87 210t-210 87t-209.5 -87t-86.5 -210v-616q0 -123 86.5 -210t209.5 -87t210 87t87 210q0 4 4 8t9 4t8.5 -4t3.5 -8q0 -134 -94.5 -228t-227.5 -94 q-132 0 -225.5 94.5t-93.5 227.5z" />
<glyph unicode="D" horiz-adv-x="792" d="M0 12v1235q0 13 12 13q170 0 315 -84.5t229.5 -229.5t84.5 -315q0 -171 -84.5 -316.5t-229.5 -230t-315 -84.5q-12 0 -12 12zM25 25q162 4 297.5 86t214.5 220t79 300t-79 300t-215 219.5t-297 84.5v-1210z" />
<glyph unicode="E" horiz-adv-x="710" d="M0 12v1235q0 5 4 9t8 4h619q4 0 8 -4t4 -9q0 -12 -12 -12h-606v-901h606q5 0 8.5 -4.5t3.5 -10.5q0 -5 -3.5 -8.5t-8.5 -3.5h-606v-282h606q4 0 8 -4t4 -9q0 -12 -12 -12h-619q-12 0 -12 12z" />
<glyph unicode="F" horiz-adv-x="704" d="M0 12v1235q0 13 12 13h617q4 0 8 -4t4 -9t-3.5 -8.5t-8.5 -3.5h-604v-901h604q5 0 8.5 -4t3.5 -8q0 -13 -12 -13h-604v-297q0 -4 -4 -8t-9 -4q-12 0 -12 12z" />
<glyph unicode="G" horiz-adv-x="765" d="M0 322v616q0 133 93.5 227.5t225.5 94.5q133 0 227.5 -94t94.5 -228q0 -4 -3.5 -8t-8.5 -4t-9 4t-4 8q0 123 -87 210t-210 87t-209.5 -87t-86.5 -210v-616q0 -123 86.5 -210t209.5 -87q120 0 206 82.5t91 201.5h-297q-12 0 -12 13q0 4 3.5 8t8.5 4h310q5 0 8.5 -4t3.5 -8 q0 -134 -94.5 -228t-227.5 -94q-132 0 -225.5 94.5t-93.5 227.5z" />
<glyph unicode="H" horiz-adv-x="817" d="M0 12v1235q0 13 12 13q4 0 8.5 -4t4.5 -9v-913h591v913q0 5 4 9t9 4q4 0 8 -4t4 -9v-1235q0 -4 -3.5 -8t-8.5 -4t-9 4t-4 8v297h-591v-297q0 -4 -4 -8t-9 -4q-12 0 -12 12z" />
<glyph unicode="I" horiz-adv-x="200" d="M0 12v1235q0 5 4 9t8 4t8.5 -4t4.5 -9v-1235q0 -4 -4 -8t-9 -4q-4 0 -8 4t-4 8z" />
<glyph unicode="J" horiz-adv-x="813" d="M0 322q0 12 10 12q13 0 13 -12q0 -123 86.5 -210t209.5 -87t210 87t87 210v925q0 5 4 9t9 4q4 0 8 -4t4 -9v-925q0 -134 -94.5 -228t-227.5 -94q-132 0 -225.5 94.5t-93.5 227.5z" />
<glyph unicode="K" horiz-adv-x="780" d="M0 12v1229q0 5 4 8.5t8 3.5q5 0 9 -4t4 -8v-842l593 854q7 10 19 2q9 -5 2 -16l-410 -588l410 -633q7 -7 -2 -16q-2 -2 -8 -2q-8 0 -11 6l-403 623l-190 -273v-344q0 -4 -4 -8t-9 -4q-4 0 -8 4t-4 8z" />
<glyph unicode="L" horiz-adv-x="708" d="M0 10v1235q0 12 12 12q13 0 13 -12v-1222h606q12 0 12 -13q0 -10 -12 -10h-619q-12 0 -12 10z" />
<glyph unicode="M" horiz-adv-x="1435" d="M2 12v1235q0 10 8 13q8 4 15 -7l606 -909l608 909q4 11 12 7q11 -4 11 -13v-1235q0 -4 -4 -8t-9 -4q-12 0 -12 12v1194l-596 -893q-4 -4 -10 -4t-10 4l-594 893v-1194q0 -4 -4 -8t-9 -4q-12 0 -12 12z" />
<glyph unicode="N" horiz-adv-x="817" d="M0 12v1235q0 10 8 13q10 3 15 -7l593 -1187v1181q0 5 4 9t9 4q4 0 8 -4t4 -9v-1235q0 -9 -10 -12h-2q-8 0 -11 6l-593 1190v-1184q0 -4 -4 -8t-9 -4q-12 0 -12 12z" />
<glyph unicode="O" horiz-adv-x="813" d="M0 322v616q0 133 93.5 227.5t225.5 94.5q133 0 227.5 -94t94.5 -228v-616q0 -134 -94.5 -228t-227.5 -94q-132 0 -225.5 94.5t-93.5 227.5zM23 322q0 -123 86.5 -210t209.5 -87t210 87t87 210v616q0 123 -87 210t-210 87t-209.5 -87t-86.5 -210v-616z" />
<glyph unicode="P" horiz-adv-x="761" d="M0 12v1264q0 12 12 12h150q200 0 340 -137q139 -136 139 -336q0 -97 -38 -185.5t-102 -152.5t-153 -101.5t-186 -37.5h-137v-326q0 -4 -4 -8t-9 -4q-12 0 -12 12zM25 362h137q124 0 228.5 60.5t165 165t60.5 227.5q0 189 -131 319t-323 130h-137v-902z" />
<glyph unicode="Q" horiz-adv-x="815" d="M0 322v616q0 133 93.5 227.5t225.5 94.5q133 0 227.5 -94t94.5 -228v-616q0 -128 -86 -220l82 -82q5 -3 5 -8t-5 -8q-4 -4 -8 -4t-8 4l-82 82q-92 -86 -220 -86q-132 0 -225.5 94.5t-93.5 227.5zM23 322q0 -123 86.5 -210t209.5 -87q114 0 201 77l-209 211q-3 3 -3 8.5 t3 8.5q9 8 17 0l211 -209q77 87 77 201v616q0 123 -87 210t-210 87t-209.5 -87t-86.5 -210v-616z" />
<glyph unicode="R" horiz-adv-x="796" d="M0 12v1235q0 5 4 9t8 4h152q95 0 182.5 -36t155.5 -102q141 -138 141 -334q0 -154 -89.5 -278t-229.5 -174l313 -316q5 -3 5 -8t-5 -8q-4 -4 -8 -4t-8 4l-324 324q-68 -19 -133 -19h-139v-297q0 -4 -4 -8t-9 -4q-4 0 -8 4t-4 8zM25 334h139q123 0 227 60.5t164.5 165 t60.5 228.5q0 188 -131 317.5t-321 129.5h-139v-901z" />
<glyph unicode="S" horiz-adv-x="796" d="M0 322q0 12 10 12q13 0 13 -12q0 -123 86.5 -210t209.5 -87t210 87t87 210t-87 209.5t-210 86.5q-132 0 -225.5 94t-93.5 226q0 133 93.5 227.5t225.5 94.5t227 -94.5t95 -227.5q0 -4 -3.5 -8t-8.5 -4q-13 0 -13 12q0 123 -87 210t-210 87t-209.5 -87t-86.5 -210 t86.5 -209t209.5 -86q132 0 227 -94.5t95 -226.5q0 -133 -95 -227.5t-227 -94.5t-225.5 94.5t-93.5 227.5z" />
<glyph unicode="T" horiz-adv-x="606" d="M8 1247q0 5 4 9t8 4h617q12 0 12 -13q0 -12 -12 -12h-295v-1223q0 -4 -4 -8t-8 -4q-13 0 -13 12v1223h-297q-4 0 -8 3.5t-4 8.5z" />
<glyph unicode="U" horiz-adv-x="813" d="M0 303v2v942q0 13 10 13q13 0 13 -13v-925q0 -123 86.5 -210t209.5 -87t210 87t87 210v925q0 5 4 9t9 4q4 0 8 -4t4 -9v-925q0 -134 -94.5 -228t-227.5 -94q-128 0 -220.5 88t-98.5 215z" />
<glyph unicode="V" horiz-adv-x="790" d="M4 1245q-4 11 8 15q5 2 10 -1.5t5 -7.5l297 -1188l297 1188q4 12 16 9q12 -4 8 -15l-309 -1235q0 -10 -12 -10q-11 0 -11 10z" />
<glyph unicode="W" horiz-adv-x="1411" d="M6 1245q-4 11 8 15q13 3 17 -9l297 -1188l295 1188q5 9 12 9t12 -9l297 -1188l297 1188q4 12 14 9q11 -4 11 -15l-310 -1235q-3 -10 -12 -10t-12 10l-297 1186l-297 -1186q0 -10 -10 -10q-13 0 -13 10z" />
<glyph unicode="X" horiz-adv-x="794" d="M6 18l307 613l-307 610q-4 13 6 16q4 3 10 1.5t7 -5.5l299 -596l297 596q4 12 16 4q10 -3 6 -16l-307 -610l307 -613q4 -13 -6 -16q-2 -2 -6 -2q-7 0 -10 6l-297 596l-299 -596q-3 -6 -11 -6q-4 0 -6 2q-10 3 -6 16z" />
<glyph unicode="Y" horiz-adv-x="604" d="M6 1241q-4 13 6 16q4 3 10 1.5t7 -5.5l299 -596l297 596q4 12 16 4q10 -3 6 -16l-307 -614v-615q0 -4 -4 -8t-8 -4q-6 0 -10.5 3.5t-4.5 8.5v615z" />
<glyph unicode="Z" horiz-adv-x="757" d="M4 1249q0 5 4 9t8 4h619q3 0 10 -7q3 -6 0 -12l-608 -1216h598q4 0 8 -4t4 -9q0 -14 -12 -14h-619q-4 0 -10 6q-3 6 0 12l608 1219h-598q-12 0 -12 12z" />
<glyph unicode="a" horiz-adv-x="802" d="M-8 322q0 133 93 227t226 94q132 0 227 -94.5t95 -226.5v-310q0 -4 -3.5 -8t-8.5 -4q-13 0 -13 12v187q-37 -89 -118 -144t-179 -55q-133 0 -226 94t-93 228zM14 322q0 -123 87 -210t210 -87t210 87t87 210t-87 209.5t-210 86.5t-210 -86.5t-87 -209.5z" />
<glyph unicode="b" horiz-adv-x="798" d="M-8 322v925q0 4 3.5 8.5t6.5 4.5q4 0 8 -4t4 -9v-803q37 89 118 144t179 55q132 0 227 -94.5t95 -226.5q0 -133 -95 -227.5t-227 -94.5q-133 0 -226 94t-93 228zM14 322q0 -123 87 -210t210 -87t210 87t87 210t-87 209.5t-210 86.5t-210 -86.5t-87 -209.5z" />
<glyph unicode="c" horiz-adv-x="657" d="M0 322q0 132 93.5 226.5t225.5 94.5q131 0 228 -94q8 -11 0 -19q-9 -8 -17 0q-91 88 -211 88q-123 0 -209.5 -86.5t-86.5 -209.5t86.5 -210t209.5 -87q122 0 211 86q3 5 8.5 5t8.5 -5q3 -3 3 -8.5t-3 -8.5q-94 -94 -228 -94q-132 0 -225.5 94.5t-93.5 227.5z" />
<glyph unicode="d" horiz-adv-x="808" d="M-8 324q0 133 93.5 227t225.5 94q98 0 179 -54t118 -142v802q0 5 4 9t9 4q4 0 8 -4t4 -9v-927q0 -132 -94.5 -226t-227.5 -94q-132 0 -225.5 94t-93.5 226zM14 324q0 -122 87 -208.5t210 -86.5t210 86.5t87 208.5q0 123 -87 210t-210 87t-210 -87t-87 -210z" />
<glyph unicode="e" horiz-adv-x="780" d="M8 322q0 132 94.5 226.5t227.5 94.5q132 0 225.5 -94.5t93.5 -226.5q0 -13 -12 -13h-604q5 -119 91 -201.5t206 -82.5q123 0 209 86q3 5 8 5t8 -5q5 -3 5 -8.5t-5 -8.5q-91 -94 -225 -94t-228 94t-94 228zM33 334h592q-4 118 -90 201t-205 83q-120 0 -206 -82.5 t-91 -201.5z" />
<glyph unicode="f" horiz-adv-x="598" d="M0 12v930q0 133 93.5 227.5t225.5 94.5q133 0 227.5 -94t94.5 -228q0 -12 -12 -12q-13 0 -13 12q0 123 -87 210t-210 87t-208.5 -87t-85.5 -210v-608h294q13 0 13 -12q0 -13 -13 -13h-294v-297q0 -12 -13 -12q-12 0 -12 12z" />
<glyph unicode="g" horiz-adv-x="819" d="M12 -293q0 4 4 8t9 4t8.5 -3.5t3.5 -8.5q0 -121 86.5 -208t208.5 -87t208.5 87t86.5 208v490q-37 -88 -117 -142.5t-178 -54.5q-132 0 -226 93.5t-94 225.5t94 226t226 94t225.5 -94t93.5 -226v-612q0 -132 -93.5 -225.5t-225.5 -93.5t-226 93.5t-94 225.5zM37 319 q0 -121 86.5 -207.5t208.5 -86.5t208.5 86.5t86.5 207.5t-86.5 208t-208.5 87t-208.5 -87t-86.5 -208z" />
<glyph unicode="h" horiz-adv-x="813" d="M0 12v1235q0 13 12 13q4 0 8.5 -4t4.5 -9v-803q36 89 116 144t178 55q133 0 227.5 -94.5t94.5 -226.5v-310q0 -4 -3.5 -8t-8.5 -4t-9 4t-4 8v310q0 123 -87 209.5t-210 86.5t-208.5 -86.5t-85.5 -209.5v-310q0 -4 -4 -8t-9 -4q-12 0 -12 12z" />
<glyph unicode="i" horiz-adv-x="202" d="M0 12v619q0 5 4 8.5t8 3.5q5 0 9 -4t4 -8v-619q0 -4 -4 -8t-9 -4q-4 0 -8 4t-4 8zM0 948v299q0 5 4 9t8 4t8.5 -4t4.5 -9v-299q0 -12 -13 -12q-12 0 -12 12z" />
<glyph unicode="j" horiz-adv-x="802" d="M0 -285q0 5 4 9t8 4q13 0 13 -13q0 -122 86.5 -208.5t207.5 -86.5t208 87t87 208v918q0 12 13 12q12 0 12 -12v-918q0 -132 -94 -225.5t-226 -93.5t-225.5 93.5t-93.5 225.5zM614 950v297q0 5 4 9t9 4q4 0 8 -4t4 -9v-297q0 -12 -12 -12q-13 0 -13 12z" />
<glyph unicode="k" horiz-adv-x="782" d="M2 12v1235q0 5 4 9t8 4t8.5 -4t4.5 -9v-897l598 279q8 6 16 -6q4 -11 -6 -17l-293 -135l301 -457q4 -11 -4 -14q-2 -2 -6 -2q-2 0 -6 1t-6 1l-302 459l-292 -135v-312q0 -4 -4 -8t-9 -4q-4 0 -8 4t-4 8z" />
<glyph unicode="l" horiz-adv-x="202" d="M0 12v1235q0 5 4 9t8 4t8.5 -4t4.5 -9v-1235q0 -4 -4 -8t-9 -4q-4 0 -8 4t-4 8z" />
<glyph unicode="m" horiz-adv-x="1431" d="M2 12v310q0 132 94.5 226.5t227.5 94.5q107 0 193 -66t116 -167q28 101 113.5 167t193.5 66q133 0 227.5 -94.5t94.5 -226.5v-310q0 -4 -4 -8t-9 -4t-8.5 4t-3.5 8v310q0 123 -87 209.5t-210 86.5t-209 -86.5t-86 -209.5v-310q0 -4 -3.5 -8t-8.5 -4q-6 0 -10.5 3.5 t-4.5 8.5v310q0 123 -85.5 209.5t-208.5 86.5t-210 -86.5t-87 -209.5v-310q0 -4 -4 -8t-9 -4q-4 0 -8 4t-4 8z" />
<glyph unicode="n" horiz-adv-x="813" d="M0 12v310q0 132 94.5 226.5t227.5 94.5q132 0 226.5 -94.5t94.5 -226.5v-310q0 -4 -3.5 -8t-8.5 -4q-6 0 -10.5 3.5t-4.5 8.5v310q0 123 -85.5 209.5t-208.5 86.5t-210 -86.5t-87 -209.5v-310q0 -4 -4 -8t-9 -4q-4 0 -8 4t-4 8z" />
<glyph unicode="o" horiz-adv-x="800" d="M0 322q0 132 95 226.5t227 94.5t226.5 -94.5t94.5 -226.5q0 -133 -94.5 -227.5t-226.5 -94.5t-227 94.5t-95 227.5zM25 322q0 -123 87 -210t210 -87t209.5 87t86.5 210t-86.5 209.5t-209.5 86.5t-210 -86.5t-87 -209.5z" />
<glyph unicode="p" horiz-adv-x="804" d="M0 319q0 132 93.5 226t225.5 94t226 -94t94 -226t-94 -225.5t-226 -93.5q-98 0 -177 54.5t-117 142.5v-797q0 -4 -4 -8t-9 -4q-4 0 -8 4t-4 8v919zM25 319q0 -121 86.5 -207.5t207.5 -86.5q122 0 208.5 86.5t86.5 207.5t-87 208t-208 87t-207.5 -86.5t-86.5 -208.5z" />
<glyph unicode="q" horiz-adv-x="808" d="M0 319q0 132 93.5 226t225.5 94t226 -94t94 -226v-919q0 -4 -3.5 -8t-8.5 -4t-9 4t-4 8v281h-295q-5 0 -8.5 3.5t-3.5 8.5t3.5 8.5t8.5 3.5h295v492q-37 -88 -117 -142.5t-178 -54.5q-132 0 -225.5 93.5t-93.5 225.5zM25 319q0 -121 86.5 -207.5t207.5 -86.5 q122 0 208.5 86.5t86.5 207.5t-87 208t-208 87t-207.5 -86.5t-86.5 -208.5z" />
<glyph unicode="r" horiz-adv-x="761" d="M2 12v310q0 132 94.5 226.5t227.5 94.5q132 0 226.5 -94.5t94.5 -226.5q0 -13 -12 -13q-15 0 -15 13q0 123 -85.5 209.5t-208.5 86.5t-210 -86.5t-87 -209.5v-310q0 -4 -4 -8t-9 -4q-4 0 -8 4t-4 8z" />
<glyph unicode="s" horiz-adv-x="802" d="M2 166q0 12 12 12q13 0 13 -12q0 -58 41.5 -99.5t99.5 -41.5h309q59 0 100 41.5t41 99.5q0 60 -41 101.5t-100 41.5h-309q-69 0 -117.5 48.5t-48.5 117.5t48.5 118.5t117.5 49.5h309q69 0 117.5 -49.5t48.5 -118.5q0 -12 -12 -12q-5 0 -9 4t-4 8q0 59 -41.5 101t-99.5 42 h-309q-58 0 -99.5 -42t-41.5 -101t41.5 -100t99.5 -41h309q69 0 117.5 -49.5t48.5 -118.5q0 -68 -48.5 -117t-117.5 -49h-309q-69 0 -117.5 49t-48.5 117z" />
<glyph unicode="t" horiz-adv-x="600" d="M0 938q0 12 12 12h297v297q0 5 4.5 9t8.5 4t8 -4t4 -9v-297h297q12 0 12 -12q0 -4 -3.5 -8t-8.5 -4h-297v-914q0 -4 -4 -8t-8 -4q-5 0 -9 4t-4 8v914h-297q-4 0 -8 4t-4 8z" />
<glyph unicode="u" horiz-adv-x="808" d="M0 322v309q0 5 4 8.5t8 3.5q13 0 13 -12v-309q0 -123 87 -210t210 -87t209.5 87t86.5 210v309q0 12 13 12q5 0 8.5 -3.5t3.5 -8.5v-309q0 -133 -94.5 -227.5t-226.5 -94.5t-227 94.5t-95 227.5z" />
<glyph unicode="v" horiz-adv-x="753" d="M4 625q-6 8 6 16q11 4 17 -6l297 -594l297 594q6 9 16 6q12 -8 6 -16l-309 -619q-3 -6 -10 -6q-8 0 -11 6z" />
<glyph unicode="w" horiz-adv-x="1370" d="M2 625q-4 11 4 16q14 4 17 -6l299 -594l296 594q4 8 13 8q6 0 10 -8l297 -594l299 594q3 10 16 6q10 -7 4 -16l-307 -619q-3 -6 -12 -6q-7 0 -10 6l-297 596l-299 -596q-3 -6 -10 -6q-10 0 -13 6z" />
<glyph unicode="x" horiz-adv-x="802" d="M6 8q-8 8 0 19l301 299l-301 301q-8 8 0 16q11 8 19 0l299 -299l301 299q7 7 18 0q8 -8 0 -16l-301 -301l301 -299q8 -11 0 -19q-8 -4 -10 -4q-4 0 -8 4l-301 299l-299 -299q-4 -4 -9 -4q-2 0 -10 4z" />
<glyph unicode="y" horiz-adv-x="808" d="M0 -293q0 12 10 12q5 0 9 -4t4 -8q0 -122 86.5 -208.5t207.5 -86.5t208 87t87 208v490q-37 -88 -117 -142.5t-178 -54.5q-132 0 -224.5 93.5t-92.5 225.5v308q0 12 10 12q5 0 9 -4t4 -8v-308q0 -121 86.5 -207.5t207.5 -86.5q122 0 208.5 86.5t86.5 207.5v308q0 4 4 8 t9 4t8.5 -3.5t3.5 -8.5v-308v-612q0 -132 -94 -225.5t-226 -93.5t-224.5 93.5t-92.5 225.5z" />
<glyph unicode="z" horiz-adv-x="765" d="M0 6v2v2v4v2v2l2 2l596 596h-588q-10 0 -10 13q0 12 10 12h619h2h2h2v-2l4 -2v-2h2v-2v-6v-2q-2 0 -2 -2l-2 -2l-596 -596h588q4 0 8 -4t4 -9q0 -4 -3.5 -8t-8.5 -4h-619h-2h-2v2h-2z" />
<glyph unicode="{" />
<glyph unicode="&#xa0;" />
<glyph unicode="&#xa1;" horiz-adv-x="198" d="M0 -158v840q0 12 8 12q12 0 12 -12v-840q0 -12 -12 -12q-8 0 -8 12zM0 858v105q0 12 8 12q12 0 12 -12v-105q0 -10 -12 -10q-8 0 -8 10z" />
<glyph unicode="&#xa3;" horiz-adv-x="753" d="M0 16v926q0 132 94.5 227t227.5 95q132 0 226.5 -95t94.5 -227q0 -4 -3.5 -8t-8.5 -4q-13 0 -13 12q0 123 -86.5 210t-209.5 87t-210 -87t-87 -210v-297h297q12 0 12 -12q0 -5 -4 -8.5t-8 -3.5h-297v-592q118 4 201 90t83 205q0 12 13 12q12 0 12 -12q0 -122 87 -208.5 t210 -86.5q4 0 8 -4t4 -9q0 -12 -12 -12q-109 0 -194 65.5t-115 166.5q-30 -101 -115.5 -166.5t-194.5 -65.5q-12 0 -12 12z" />
<glyph unicode="&#xa4;" />
<glyph unicode="&#xa5;" horiz-adv-x="776" d="M6 322q0 4 4 8t8 4h297v284h-297q-12 0 -12 13q0 5 4 8.5t8 3.5h289l-299 598q-3 5 -1 9.5t7 6.5q10 7 17 -4l297 -596l297 596q7 10 16 4q5 -2 7 -6.5t-1 -9.5l-299 -598h289q5 0 8.5 -3.5t3.5 -8.5q0 -13 -12 -13h-297v-284h297q5 0 8.5 -4t3.5 -8q0 -13 -12 -13h-297 v-297q0 -4 -4 -8t-8 -4q-5 0 -9 4t-4 8v297h-297q-12 0 -12 13z" />
<glyph unicode="&#xac;" />
<glyph unicode="&#xbf;" horiz-adv-x="765" d="M0 137q0 132 94.5 227t227.5 95q123 0 208.5 86.5t85.5 208.5q0 12 13 12q12 0 12 -12q0 -132 -93.5 -226t-225.5 -94q-123 0 -210 -87t-87 -210q0 -122 87 -208.5t210 -86.5t208.5 86.5t85.5 208.5q0 5 4 9t9 4q12 0 12 -13q0 -132 -93.5 -225.5t-225.5 -93.5 q-133 0 -227.5 93.5t-94.5 225.5zM616 948v115q0 4 4 8t9 4q12 0 12 -12v-115q0 -12 -12 -12q-5 0 -9 4t-4 8z" />
<glyph unicode="&#xc0;" horiz-adv-x="819" d="M2 12q0 -4 4 -8t8 -4q5 0 9 4t4 8v297h591v-297q0 -5 4.5 -8.5t10.5 -3.5q5 0 8.5 4t3.5 8v926q0 133 -94.5 227.5t-226.5 94.5q-134 0 -228 -94t-94 -228v-926zM27 334v604q0 123 87 210t210 87t208.5 -87t85.5 -210v-604h-591zM102 1690q-6 9 0 18q10 6 19 0l250 -250 q7 -11 0 -18q-8 -8 -19 0z" />
<glyph unicode="&#xc1;" horiz-adv-x="819" d="M2 12q0 -4 4 -8t8 -4q5 0 9 4t4 8v297h591v-297q0 -5 4.5 -8.5t10.5 -3.5q5 0 8.5 4t3.5 8v926q0 133 -94.5 227.5t-226.5 94.5q-134 0 -228 -94t-94 -228v-926zM27 334v604q0 123 87 210t210 87t208.5 -87t85.5 -210v-604h-591zM287 1436q-7 7 0 18l250 250q11 7 18 0 q6 -9 0 -18l-250 -250q-9 -6 -18 0z" />
<glyph unicode="&#xc2;" horiz-adv-x="819" d="M2 12q0 -4 4 -8t8 -4q5 0 9 4t4 8v297h591v-297q0 -5 4.5 -8.5t10.5 -3.5q5 0 8.5 4t3.5 8v926q0 133 -94.5 227.5t-226.5 94.5q-134 0 -228 -94t-94 -228v-926zM27 334v604q0 123 87 210t210 87t208.5 -87t85.5 -210v-604h-591zM68 1432q-6 9 0 18l249 250q9 6 19 0 l250 -250q6 -9 0 -18q-8 -8 -19 0l-241 241l-242 -241q-8 -8 -16 0z" />
<glyph unicode="&#xc3;" horiz-adv-x="819" d="M2 12q0 -4 4 -8t8 -4q5 0 9 4t4 8v297h591v-297q0 -5 4.5 -8.5t10.5 -3.5q5 0 8.5 4t3.5 8v926q0 133 -94.5 227.5t-226.5 94.5q-134 0 -228 -94t-94 -228v-926zM27 334v604q0 123 87 210t210 87t208.5 -87t85.5 -210v-604h-591zM133 1440q0 4 3.5 8t8.5 4h355 q12 0 12 -12q0 -13 -12 -13h-355q-12 0 -12 13z" />
<glyph unicode="&#xc4;" horiz-adv-x="819" d="M2 12v926q0 134 94 228t228 94q132 0 226.5 -94.5t94.5 -227.5v-926q0 -4 -3.5 -8t-8.5 -4q-6 0 -10.5 3.5t-4.5 8.5v297h-591v-297q0 -4 -4 -8t-9 -4q-4 0 -8 4t-4 8zM27 334h591v604q0 123 -85.5 210t-208.5 87t-210 -87t-87 -210v-604zM193 1440v299q0 5 3.5 8.5 t8.5 3.5t8.5 -3.5t3.5 -8.5v-299q0 -13 -12 -13t-12 13zM422 1440v299q0 12 12 12q4 0 8 -3.5t4 -8.5v-299q0 -13 -12 -13t-12 13z" />
<glyph unicode="&#xc5;" horiz-adv-x="819" d="M2 12v926q0 134 94 228t228 94q132 0 226.5 -94.5t94.5 -227.5v-926q0 -4 -3.5 -8t-8.5 -4q-6 0 -10.5 3.5t-4.5 8.5v297h-591v-297q0 -4 -4 -8t-9 -4q-4 0 -8 4t-4 8zM27 334h591v604q0 123 -85.5 210t-208.5 87t-210 -87t-87 -210v-604zM158 1587q0 69 49 118.5 t117 49.5q69 0 118.5 -49.5t49.5 -118.5t-49.5 -117.5t-118.5 -48.5q-68 0 -117 48.5t-49 117.5zM182 1587q0 -58 41.5 -99.5t100.5 -41.5q60 0 101.5 41t41.5 100t-41.5 100.5t-101.5 41.5q-58 0 -100 -41.5t-42 -100.5z" />
<glyph unicode="&#xc6;" />
<glyph unicode="&#xc7;" horiz-adv-x="768" d="M0 322v616q0 133 93.5 227.5t225.5 94.5q133 0 227.5 -94t94.5 -228q0 -4 -3.5 -8t-8.5 -4t-9 4t-4 8q0 123 -87 210t-210 87t-209.5 -87t-86.5 -210v-616q0 -123 86.5 -210t209.5 -87q114 0 201 77l-209 211q-3 3 -3 8.5t3 8.5q9 8 17 0l211 -209q77 87 77 201q0 4 4 8 t9 4t8.5 -4t3.5 -8q0 -128 -86 -220l82 -82q5 -3 5 -8t-5 -8q-4 -4 -8 -4t-8 4l-82 82q-92 -86 -220 -86q-132 0 -225.5 94.5t-93.5 227.5z" />
<glyph unicode="&#xc8;" horiz-adv-x="710" d="M0 12q0 -4 4 -8t8 -4h619q5 0 8.5 4t3.5 8q0 13 -12 13h-606v284h606q4 0 8 4t4 9q0 4 -3.5 8t-8.5 4h-606v901h606q5 0 8.5 3.5t3.5 8.5q0 13 -12 13h-619q-12 0 -12 -13v-1235zM102 1690q-6 9 0 18q10 6 19 0l250 -250q7 -11 0 -18q-8 -8 -19 0z" />
<glyph unicode="&#xc9;" horiz-adv-x="710" d="M0 12q0 -4 4 -8t8 -4h619q5 0 8.5 4t3.5 8q0 13 -12 13h-606v284h606q4 0 8 4t4 9q0 4 -3.5 8t-8.5 4h-606v901h606q5 0 8.5 3.5t3.5 8.5q0 13 -12 13h-619q-12 0 -12 -13v-1235zM287 1436q-7 7 0 18l250 250q11 7 18 0q6 -9 0 -18l-250 -250q-9 -6 -18 0z" />
<glyph unicode="&#xca;" horiz-adv-x="710" d="M0 12q0 -4 4 -8t8 -4h619q5 0 8.5 4t3.5 8q0 13 -12 13h-606v284h606q4 0 8 4t4 9q0 4 -3.5 8t-8.5 4h-606v901h606q5 0 8.5 3.5t3.5 8.5q0 13 -12 13h-619q-12 0 -12 -13v-1235zM68 1432q-6 9 0 18l249 250q9 6 19 0l250 -250q6 -9 0 -18q-8 -8 -19 0l-241 241 l-242 -241q-8 -8 -16 0z" />
<glyph unicode="&#xcb;" horiz-adv-x="710" d="M0 12v1235q0 13 12 13h619q12 0 12 -13q0 -5 -3.5 -8.5t-8.5 -3.5h-606v-901h606q5 0 8.5 -4t3.5 -8q0 -5 -4 -9t-8 -4h-606v-284h606q12 0 12 -13q0 -4 -3.5 -8t-8.5 -4h-619q-4 0 -8 4t-4 8zM193 1440v299q0 5 3.5 8.5t8.5 3.5t8.5 -3.5t3.5 -8.5v-299q0 -13 -12 -13 t-12 13zM422 1440v299q0 12 12 12q4 0 8 -3.5t4 -8.5v-299q0 -13 -12 -13t-12 13z" />
<glyph unicode="&#xcc;" horiz-adv-x="198" d="M-225 1690q-6 9 0 18q9 6 18 0l248 -250q7 -11 0 -18t-18 0zM0 12q0 -12 12 -12q5 0 9 4t4 8v1235q0 5 -4.5 9t-8.5 4q-12 0 -12 -13v-1235z" />
<glyph unicode="&#xcd;" horiz-adv-x="245" d="M-6 1436q-7 7 0 18l248 250q11 7 18 0q6 -9 0 -18l-250 -250q-8 -5 -16 0zM0 12q0 -12 12 -12q5 0 9 4t4 8v1235q0 5 -4.5 9t-8.5 4q-12 0 -12 -13v-1235z" />
<glyph unicode="&#xce;" horiz-adv-x="256" d="M-246 1432q-6 9 0 18l248 250q9 6 18 0l250 -250q6 -9 0 -18q-7 -7 -18 0l-242 241l-239 -241q-9 -8 -17 0zM0 12q0 -12 12 -12q5 0 9 4t4 8v1235q0 5 -4.5 9t-8.5 4q-12 0 -12 -13v-1235z" />
<glyph unicode="&#xcf;" horiz-adv-x="198" d="M-127 1440v299q0 5 3.5 8.5t8.5 3.5t9 -4t4 -8v-299q0 -13 -13 -13q-12 0 -12 13zM0 12v1235q0 13 12 13q4 0 8.5 -4t4.5 -9v-1235q0 -4 -4 -8t-9 -4q-12 0 -12 12zM100 1440v299q0 12 13 12q5 0 8.5 -3.5t3.5 -8.5v-299q0 -13 -12 -13q-13 0 -13 13z" />
<glyph unicode="&#xd1;" />
<glyph unicode="&#xd2;" horiz-adv-x="813" d="M0 322q0 -133 93.5 -227.5t225.5 -94.5q133 0 227.5 94t94.5 228v616q0 134 -94.5 228t-227.5 94q-132 0 -225.5 -94.5t-93.5 -227.5v-616zM23 322v616q0 123 86.5 210t209.5 87t210 -87t87 -210v-616q0 -123 -87 -210t-210 -87t-209.5 87t-86.5 210zM102 1690q-6 9 0 18 q10 6 19 0l250 -250q7 -11 0 -18q-8 -8 -19 0z" />
<glyph unicode="&#xd3;" horiz-adv-x="813" d="M0 322q0 -133 93.5 -227.5t225.5 -94.5q133 0 227.5 94t94.5 228v616q0 134 -94.5 228t-227.5 94q-132 0 -225.5 -94.5t-93.5 -227.5v-616zM23 322v616q0 123 86.5 210t209.5 87t210 -87t87 -210v-616q0 -123 -87 -210t-210 -87t-209.5 87t-86.5 210zM287 1436q-7 7 0 18 l250 250q11 7 18 0q6 -9 0 -18l-250 -250q-9 -6 -18 0z" />
<glyph unicode="&#xd4;" horiz-adv-x="813" d="M0 322q0 -133 93.5 -227.5t225.5 -94.5q133 0 227.5 94t94.5 228v616q0 134 -94.5 228t-227.5 94q-132 0 -225.5 -94.5t-93.5 -227.5v-616zM23 322v616q0 123 86.5 210t209.5 87t210 -87t87 -210v-616q0 -123 -87 -210t-210 -87t-209.5 87t-86.5 210zM68 1432q-6 9 0 18 l249 250q9 6 19 0l250 -250q6 -9 0 -18q-8 -8 -19 0l-241 241l-242 -241q-8 -8 -16 0z" />
<glyph unicode="&#xd5;" horiz-adv-x="813" d="M0 322v616q0 133 93.5 227.5t225.5 94.5q133 0 227.5 -94t94.5 -228v-616q0 -134 -94.5 -228t-227.5 -94q-132 0 -225.5 94.5t-93.5 227.5zM23 322q0 -123 86.5 -210t209.5 -87t210 87t87 210v616q0 123 -87 210t-210 87t-209.5 -87t-86.5 -210v-616z" />
<glyph unicode="&#xd6;" horiz-adv-x="813" d="M0 322v616q0 133 93.5 227.5t225.5 94.5q133 0 227.5 -94t94.5 -228v-616q0 -134 -94.5 -228t-227.5 -94q-132 0 -225.5 94.5t-93.5 227.5zM23 322q0 -123 86.5 -210t209.5 -87t210 87t87 210v616q0 123 -87 210t-210 87t-209.5 -87t-86.5 -210v-616zM193 1440v299 q0 5 3.5 8.5t8.5 3.5t8.5 -3.5t3.5 -8.5v-299q0 -13 -12 -13t-12 13zM422 1440v299q0 12 12 12q4 0 8 -3.5t4 -8.5v-299q0 -13 -12 -13t-12 13z" />
<glyph unicode="&#xd9;" horiz-adv-x="815" d="M2 322v925q0 13 12 13q4 0 8.5 -4t4.5 -9v-925q0 -123 86 -210t209 -87t209.5 87t86.5 210v925q0 5 4 9t9 4q4 0 8 -4t4 -9v-925q0 -134 -94 -228t-227 -94q-132 0 -226 94.5t-94 227.5zM102 1690q-6 9 0 18q10 6 19 0l250 -250q7 -11 0 -18q-8 -8 -19 0z" />
<glyph unicode="&#xda;" horiz-adv-x="815" d="M2 322v925q0 13 12 13q4 0 8.5 -4t4.5 -9v-925q0 -123 86 -210t209 -87t209.5 87t86.5 210v925q0 5 4 9t9 4q4 0 8 -4t4 -9v-925q0 -134 -94 -228t-227 -94q-132 0 -226 94.5t-94 227.5zM287 1436q-7 7 0 18l250 250q11 7 18 0q6 -9 0 -18l-250 -250q-9 -6 -18 0z" />
<glyph unicode="&#xdb;" horiz-adv-x="815" d="M2 322v925q0 13 12 13q4 0 8.5 -4t4.5 -9v-925q0 -123 86 -210t209 -87t209.5 87t86.5 210v925q0 5 4 9t9 4q4 0 8 -4t4 -9v-925q0 -134 -94 -228t-227 -94q-132 0 -226 94.5t-94 227.5zM68 1432q-6 9 0 18l249 250q9 6 19 0l250 -250q6 -9 0 -18q-8 -8 -19 0l-241 241 l-242 -241q-8 -8 -16 0z" />
<glyph unicode="&#xdc;" horiz-adv-x="815" d="M2 322q0 -133 94 -227.5t226 -94.5q133 0 227 94t94 228v925q0 5 -4 9t-8 4q-5 0 -9 -4t-4 -9v-925q0 -123 -86.5 -210t-209.5 -87t-209 87t-86 210v925q0 5 -4.5 9t-8.5 4q-12 0 -12 -13v-925zM193 1440v299q0 5 3.5 8.5t8.5 3.5t8.5 -3.5t3.5 -8.5v-299q0 -13 -12 -13 t-12 13zM422 1440v299q0 12 12 12q4 0 8 -3.5t4 -8.5v-299q0 -13 -12 -13t-12 13z" />
<glyph unicode="&#xdd;" />
<glyph unicode="&#xe0;" horiz-adv-x="796" d="M-8 322q0 -134 93 -228t226 -94q98 0 179 55t118 144v-187q0 -12 13 -12q5 0 8.5 4t3.5 8v310q0 132 -95 226.5t-227 94.5q-133 0 -226 -94t-93 -227zM14 322q0 123 87 209.5t210 86.5t210 -86.5t87 -209.5t-87 -210t-210 -87t-210 87t-87 210zM102 1186q-6 9 0 18 q10 6 19 0l250 -250q7 -11 0 -18q-8 -8 -19 0z" />
<glyph unicode="&#xe1;" horiz-adv-x="798" d="M-8 322q0 -134 93 -228t226 -94q98 0 179 55t118 144v-187q0 -12 13 -12q5 0 8.5 4t3.5 8v310q0 132 -95 226.5t-227 94.5q-133 0 -226 -94t-93 -227zM14 322q0 123 87 209.5t210 86.5t210 -86.5t87 -209.5t-87 -210t-210 -87t-210 87t-87 210zM287 936q-7 7 0 18 l250 250q11 7 18 0q6 -9 0 -18l-250 -250q-9 -6 -18 0z" />
<glyph unicode="&#xe2;" horiz-adv-x="806" d="M0 322q0 -132 94.5 -227t227.5 -95q98 0 178.5 55t117.5 144v-187q0 -12 13 -12q5 0 8.5 4t3.5 8v310q0 132 -94.5 226.5t-226.5 94.5q-133 0 -227.5 -94.5t-94.5 -226.5zM25 322q0 123 87 209.5t210 86.5t209.5 -86.5t86.5 -209.5t-86.5 -210t-209.5 -87t-210 87 t-87 210zM68 936q-6 9 0 18l249 250q9 6 19 0l250 -250q6 -9 0 -18q-8 -8 -19 0l-241 242l-242 -242q-8 -8 -16 0z" />
<glyph unicode="&#xe3;" horiz-adv-x="796" d="M-8 322q0 -134 93 -228t226 -94q98 0 179 55t118 144v-187q0 -12 13 -12q5 0 8.5 4t3.5 8v310q0 132 -95 226.5t-227 94.5q-133 0 -226 -94t-93 -227zM14 322q0 123 87 209.5t210 86.5t210 -86.5t87 -209.5t-87 -210t-210 -87t-210 87t-87 210zM131 950q0 5 4 9t8 4h355 q12 0 12 -13q0 -12 -12 -12h-355q-12 0 -12 12z" />
<glyph unicode="&#xe4;" horiz-adv-x="798" d="M-8 322q0 133 93 227t226 94q132 0 227 -94.5t95 -226.5v-310q0 -4 -3.5 -8t-8.5 -4q-13 0 -13 12v187q-37 -89 -118 -144t-179 -55q-133 0 -226 94t-93 228zM14 322q0 -123 87 -210t210 -87t210 87t87 210t-87 209.5t-210 86.5t-210 -86.5t-87 -209.5zM205 948v299 q0 5 4 9t8 4t8 -4t4 -9v-299q0 -12 -12 -12t-12 12zM434 948v299q0 13 12 13q4 0 8.5 -4t4.5 -9v-299q0 -12 -13 -12q-12 0 -12 12z" />
<glyph unicode="&#xe5;" horiz-adv-x="800" d="M-8 322q0 133 93 227t226 94q132 0 227 -94.5t95 -226.5v-310q0 -4 -3.5 -8t-8.5 -4q-13 0 -13 12v187q-37 -89 -118 -144t-179 -55q-133 0 -226 94t-93 228zM14 322q0 -123 87 -210t210 -87t210 87t87 210t-87 209.5t-210 86.5t-210 -86.5t-87 -209.5z" />
<glyph unicode="&#xe6;" />
<glyph unicode="&#xe7;" horiz-adv-x="710" d="M27 322q0 132 93.5 226.5t225.5 94.5q133 0 227 -94q11 -11 0 -19q-8 -8 -16 0q-91 88 -211 88q-122 0 -208.5 -86.5t-86.5 -209.5t86.5 -210t208.5 -87q87 0 160 45l-141 141q-11 11 0 18q8 8 16 0l145 -145q5 4 15.5 13.5t15.5 13.5q3 5 8 5t8 -5q5 -3 5 -8.5t-5 -8.5 q-10 -13 -30 -26l47 -48q8 -8 0 -16q-4 -4 -8 -4q-7 0 -11 4l-49 49q-77 -53 -176 -53q-132 0 -225.5 94.5t-93.5 227.5z" />
<glyph unicode="&#xe8;" horiz-adv-x="772" d="M8 322q0 -134 94 -228t228 -94t225 94q5 3 5 8.5t-5 8.5q-3 5 -8 5t-8 -5q-86 -86 -209 -86q-120 0 -206 82.5t-91 201.5h604q12 0 12 13q0 132 -93.5 226.5t-225.5 94.5q-133 0 -227.5 -94.5t-94.5 -226.5zM33 334q5 119 91 201.5t206 82.5q119 0 205 -83t90 -201h-592z M102 1186q-6 9 0 18q10 6 19 0l250 -250q7 -11 0 -18q-8 -8 -19 0z" />
<glyph unicode="&#xe9;" horiz-adv-x="776" d="M8 322q0 -134 94 -228t228 -94t225 94q5 3 5 8.5t-5 8.5q-3 5 -8 5t-8 -5q-86 -86 -209 -86q-120 0 -206 82.5t-91 201.5h604q12 0 12 13q0 132 -93.5 226.5t-225.5 94.5q-133 0 -227.5 -94.5t-94.5 -226.5zM33 334q5 119 91 201.5t206 82.5q119 0 205 -83t90 -201h-592z M287 936q-7 7 0 18l250 250q11 7 18 0q6 -9 0 -18l-250 -250q-9 -6 -18 0z" />
<glyph unicode="&#xea;" horiz-adv-x="776" d="M8 322q0 -134 94 -228t228 -94t225 94q5 3 5 8.5t-5 8.5q-3 5 -8 5t-8 -5q-86 -86 -209 -86q-120 0 -206 82.5t-91 201.5h604q12 0 12 13q0 132 -93.5 226.5t-225.5 94.5q-133 0 -227.5 -94.5t-94.5 -226.5zM33 334q5 119 91 201.5t206 82.5q119 0 205 -83t90 -201h-592z M66 936q-7 7 0 18l251 250q9 8 17 0l250 -250q11 -11 0 -18q-8 -8 -17 0l-241 242l-242 -242q-7 -7 -18 0z" />
<glyph unicode="&#xeb;" horiz-adv-x="776" d="M8 322q0 132 94.5 226.5t227.5 94.5q132 0 225.5 -94.5t93.5 -226.5q0 -13 -12 -13h-604q5 -119 91 -201.5t206 -82.5q123 0 209 86q3 5 8 5t8 -5q5 -3 5 -8.5t-5 -8.5q-91 -94 -225 -94t-228 94t-94 228zM33 334h592q-4 118 -90 201t-205 83q-120 0 -206 -82.5 t-91 -201.5zM205 948v299q0 5 4 9t8 4t8 -4t4 -9v-299q0 -12 -12 -12t-12 12zM434 948v299q0 13 12 13q4 0 8.5 -4t4.5 -9v-299q0 -12 -13 -12q-12 0 -12 12z" />
<glyph unicode="&#xec;" horiz-adv-x="202" d="M-221 1192q-6 9 0 18q9 6 18 0l248 -249q8 -11 0 -19q-7 -7 -18 0zM0 12q0 -4 4 -8t8 -4q5 0 9 4t4 8v619q0 4 -4 8t-9 4q-4 0 -8 -3.5t-4 -8.5v-619z" />
<glyph unicode="&#xed;" horiz-adv-x="380" d="M-18 936q-7 7 0 18l247 250q11 8 19 0q6 -9 0 -18l-248 -250q-9 -6 -18 0zM0 12q0 -4 4 -8t8 -4q5 0 9 4t4 8v619q0 4 -4 8t-9 4q-4 0 -8 -3.5t-4 -8.5v-619z" />
<glyph unicode="&#xee;" horiz-adv-x="253" d="M-248 936q-7 7 0 18l248 250q9 6 18 0l250 -250q7 -11 0 -18t-18 0l-242 242l-239 -242q-9 -8 -17 0zM0 12q0 -4 4 -8t8 -4q5 0 9 4t4 8v619q0 4 -4 8t-9 4q-4 0 -8 -3.5t-4 -8.5v-619z" />
<glyph unicode="&#xef;" horiz-adv-x="284" d="M-121 948v299q0 5 4 9t8 4q5 0 9 -4t4 -9v-299q0 -12 -13 -12q-12 0 -12 12zM0 12v619q0 5 4 8.5t8 3.5q5 0 9 -4t4 -8v-619q0 -4 -4 -8t-9 -4q-4 0 -8 4t-4 8zM106 948v299q0 13 13 13q4 0 8 -4t4 -9v-299q0 -12 -12 -12q-13 0 -13 12z" />
<glyph unicode="&#xf0;" />
<glyph unicode="&#xf1;" horiz-adv-x="804" d="M0 12q0 -4 4 -8t8 -4q5 0 9 4t4 8v307q0 123 87 209t210 86t208.5 -86t85.5 -209v-307q0 -5 4.5 -8.5t10.5 -3.5q5 0 8.5 4t3.5 8v307q0 132 -94.5 226t-226.5 94q-133 0 -227.5 -94t-94.5 -226v-307zM131 950q0 5 4 9t8 4h355q12 0 12 -13q0 -12 -12 -12h-355 q-12 0 -12 12z" />
<glyph unicode="&#xf2;" horiz-adv-x="800" d="M0 322q0 -133 93.5 -227.5t225.5 -94.5t227 94.5t95 227.5q0 132 -95 226.5t-227 94.5t-225.5 -94.5t-93.5 -226.5zM23 322q0 123 86.5 209.5t209.5 86.5t210 -86.5t87 -209.5t-87 -210t-210 -87t-209.5 87t-86.5 210zM102 1186q-6 9 0 18q10 6 19 0l250 -250 q7 -11 0 -18q-8 -8 -19 0z" />
<glyph unicode="&#xf3;" horiz-adv-x="806" d="M0 322q0 -133 95 -227.5t227 -94.5t226.5 94.5t94.5 227.5q0 132 -94.5 226.5t-226.5 94.5t-227 -94.5t-95 -226.5zM25 322q0 123 87 209.5t210 86.5t209.5 -86.5t86.5 -209.5t-86.5 -210t-209.5 -87t-210 87t-87 210zM287 936q-7 7 0 18l250 250q11 7 18 0q6 -9 0 -18 l-250 -250q-9 -6 -18 0z" />
<glyph unicode="&#xf4;" horiz-adv-x="806" d="M0 322q0 132 95 226.5t227 94.5t226.5 -94.5t94.5 -226.5q0 -133 -94.5 -227.5t-226.5 -94.5t-227 94.5t-95 227.5zM25 322q0 -123 87 -210t210 -87t209.5 87t86.5 210t-86.5 209.5t-209.5 86.5t-210 -86.5t-87 -209.5zM57 936q-7 7 0 18l250 250q9 6 19 0l249 -250 q7 -11 0 -18t-18 0l-242 242l-241 -242q-8 -8 -17 0z" />
<glyph unicode="&#xf5;" horiz-adv-x="800" d="M0 322q0 -133 95 -227.5t227 -94.5t226.5 94.5t94.5 227.5q0 132 -94.5 226.5t-226.5 94.5t-227 -94.5t-95 -226.5zM25 322q0 123 87 209.5t210 86.5t209.5 -86.5t86.5 -209.5t-86.5 -210t-209.5 -87t-210 87t-87 210zM131 950q0 5 4 9t8 4h355q12 0 12 -13 q0 -12 -12 -12h-355q-12 0 -12 12z" />
<glyph unicode="&#xf6;" horiz-adv-x="806" d="M0 322q0 132 95 226.5t227 94.5t226.5 -94.5t94.5 -226.5q0 -133 -94.5 -227.5t-226.5 -94.5t-227 94.5t-95 227.5zM25 322q0 -123 87 -210t210 -87t209.5 87t86.5 210t-86.5 209.5t-209.5 86.5t-210 -86.5t-87 -209.5zM197 948v299q0 13 12 13t12 -13v-299q0 -4 -3.5 -8 t-8.5 -4t-8.5 4t-3.5 8zM426 948v299q0 13 12 13q13 0 13 -13v-299q0 -4 -4 -8t-9 -4q-12 0 -12 12z" />
<glyph unicode="&#xf7;" />
<glyph unicode="&#xf8;" />
<glyph unicode="&#xf9;" horiz-adv-x="804" d="M0 322q0 -133 95 -227.5t227 -94.5t226.5 94.5t94.5 227.5v309q0 5 -3.5 8.5t-8.5 3.5q-13 0 -13 -12v-309q0 -123 -86.5 -210t-209.5 -87t-210 87t-87 210v309q0 12 -13 12q-4 0 -8 -3.5t-4 -8.5v-309zM102 1186q-6 9 0 18q10 6 19 0l250 -250q7 -11 0 -18q-8 -8 -19 0z " />
<glyph unicode="&#xfa;" horiz-adv-x="808" d="M0 322q0 -133 95 -227.5t227 -94.5t226.5 94.5t94.5 227.5v309q0 5 -3.5 8.5t-8.5 3.5q-13 0 -13 -12v-309q0 -123 -86.5 -210t-209.5 -87t-210 87t-87 210v309q0 12 -13 12q-4 0 -8 -3.5t-4 -8.5v-309zM287 936q-7 7 0 18l250 250q11 7 18 0q6 -9 0 -18l-250 -250 q-9 -6 -18 0z" />
<glyph unicode="&#xfb;" horiz-adv-x="808" d="M0 322q0 -133 95 -227.5t227 -94.5t226.5 94.5t94.5 227.5v309q0 5 -3.5 8.5t-8.5 3.5q-13 0 -13 -12v-309q0 -123 -86.5 -210t-209.5 -87t-210 87t-87 210v309q0 12 -13 12q-4 0 -8 -3.5t-4 -8.5v-309zM59 936q-7 7 0 18l252 250q9 8 17 0l252 -250q7 -11 0 -18 q-11 -8 -19 0l-242 242l-241 -242q-8 -8 -19 0z" />
<glyph unicode="&#xfc;" horiz-adv-x="808" d="M0 322v309q0 5 4 8.5t8 3.5q13 0 13 -12v-309q0 -123 87 -210t210 -87t209.5 87t86.5 210v309q0 12 13 12q5 0 8.5 -3.5t3.5 -8.5v-309q0 -133 -94.5 -227.5t-226.5 -94.5t-227 94.5t-95 227.5zM205 948v299q0 5 4 9t8 4t8 -4t4 -9v-299q0 -12 -12 -12t-12 12zM434 948 v299q0 13 12 13q4 0 8.5 -4t4.5 -9v-299q0 -12 -13 -12q-12 0 -12 12z" />
<glyph unicode="&#x2000;" horiz-adv-x="877" />
<glyph unicode="&#x2001;" horiz-adv-x="1755" />
<glyph unicode="&#x2002;" horiz-adv-x="877" />
<glyph unicode="&#x2003;" horiz-adv-x="1755" />
<glyph unicode="&#x2004;" horiz-adv-x="585" />
<glyph unicode="&#x2005;" horiz-adv-x="438" />
<glyph unicode="&#x2006;" horiz-adv-x="292" />
<glyph unicode="&#x2007;" horiz-adv-x="292" />
<glyph unicode="&#x2008;" horiz-adv-x="219" />
<glyph unicode="&#x2009;" horiz-adv-x="351" />
<glyph unicode="&#x200a;" horiz-adv-x="97" />
<glyph unicode="&#x202f;" horiz-adv-x="351" />
<glyph unicode="&#x205f;" horiz-adv-x="438" />
<glyph unicode="&#x20ac;" horiz-adv-x="768" d="M2 322v616q0 133 94 227.5t226 94.5q133 0 227 -94t94 -228q0 -4 -3.5 -8t-8.5 -4t-9 4t-4 8q0 123 -86.5 210t-209.5 87t-209 -87t-86 -210v-295h604q5 0 8.5 -3.5t3.5 -8.5q0 -13 -12 -13h-604v-296q0 -123 86 -210t209 -87t209.5 87t86.5 210q0 4 4 8t9 4t8.5 -4 t3.5 -8q0 -134 -94 -228t-227 -94q-132 0 -226 94.5t-94 227.5z" />
<glyph unicode="&#x25fc;" horiz-adv-x="645" d="M0 0v645h645v-645h-645z" />
</font>
</defs>
</svg>
