<?xml version="1.0" standalone="no"?>
<!DOCTYPE svg PUBLIC "-//W3C//DTD SVG 1.1//EN" "http://www.w3.org/Graphics/SVG/1.1/DTD/svg11.dtd" >
<svg xmlns="http://www.w3.org/2000/svg" xmlns:xlink="http://www.w3.org/1999/xlink" version="1.1">
<metadata></metadata>
<defs>
<font id="bowhouse_regularregular" horiz-adv-x="432" >
<font-face units-per-em="2048" ascent="1391" descent="-657" />
<missing-glyph horiz-adv-x="500" />
<glyph horiz-adv-x="0" />
<glyph horiz-adv-x="682" />
<glyph />
<glyph />
<glyph />
<glyph unicode="&#x9;" />
<glyph unicode="&#xa;" />
<glyph unicode="&#xd;" />
<glyph unicode=" " />
<glyph unicode="!" horiz-adv-x="229" d="M2 31v104q0 13 9.5 23t21.5 10q13 0 23 -10t10 -23v-104q0 -12 -10 -21.5t-23 -9.5q-12 0 -21.5 9.5t-9.5 21.5zM2 313v842q0 12 9.5 21.5t21.5 9.5q13 0 23 -9.5t10 -21.5v-842q0 -13 -9.5 -22.5t-23.5 -9.5q-12 0 -21.5 9.5t-9.5 22.5z" />
<glyph unicode="&#x22;" />
<glyph unicode="#" />
<glyph unicode="$" horiz-adv-x="829" d="M2 342q0 14 10 23.5t23 9.5t23 -9.5t10 -23.5q0 -105 70 -183.5t173 -90.5v550q-131 12 -220 110t-89 230q0 141 100.5 241.5t241.5 100.5t241.5 -100.5t100.5 -241.5q0 -13 -10.5 -22.5t-22.5 -9.5q-14 0 -24.5 9.5t-10.5 22.5q0 106 -69 184.5t-172 90.5v-551 q129 -12 219 -110t90 -230q0 -141 -100.5 -241.5t-241.5 -100.5t-241.5 100.5t-100.5 241.5zM68 958q0 -105 70 -182.5t173 -89.5v547q-103 -12 -173 -91t-70 -184zM377 68q103 12 172 90t69 184t-69 184t-172 90v-548z" />
<glyph unicode="%" />
<glyph unicode="&#x26;" />
<glyph unicode="'" />
<glyph unicode="(" />
<glyph unicode=")" />
<glyph unicode="*" />
<glyph unicode="+" />
<glyph unicode="," horiz-adv-x="270" d="M6 -82q-12 29 10 45q2 0 7 5t10.5 19t5.5 31v115q0 13 9.5 23t23.5 10q13 0 22.5 -9.5t9.5 -23.5v-115q0 -14 -2 -26.5t-5.5 -22.5t-8 -19t-8.5 -15t-9 -12t-8.5 -8.5t-6.5 -5.5l-3 -3q-12 -4 -18 -4q-19 0 -29 16z" />
<glyph unicode="-" />
<glyph unicode="." horiz-adv-x="247" d="M2 33v114q0 13 10 23t23 10t23 -10t10 -23v-114q0 -13 -10 -23t-23 -10t-23 10t-10 23z" />
<glyph unicode="/" />
<glyph unicode="0" horiz-adv-x="942" d="M129 342v616q0 141 100.5 241.5t241.5 100.5t241.5 -100.5t100.5 -241.5v-616q0 -141 -100.5 -241.5t-241.5 -100.5t-241.5 100.5t-100.5 241.5zM195 328q6 -109 86 -185.5t190 -76.5q114 0 195.5 80.5t81.5 195.5v539zM195 420l550 553q-5 109 -84.5 185.5t-189.5 76.5 q-114 0 -195 -81t-81 -196v-538z" />
<glyph unicode="1" horiz-adv-x="942" d="M128 651.5q0 13.5 9 22.5l621 616q16 16 35 6q20 -7 20 -30v-1229q0 -13 -9.5 -23t-23.5 -10q-13 0 -22.5 9.5t-9.5 23.5v1151l-564 -559q-9 -9 -23.5 -9t-23.5 9t-9 22.5z" />
<glyph unicode="2" horiz-adv-x="942" d="M129 961q0 141 100.5 241.5t241.5 100.5t241.5 -100.5t100.5 -241.5q0 -11 -6 -17l-584 -876h557q12 0 22.5 -10t10.5 -23t-10.5 -23t-22.5 -10h-618q-20 0 -29 18q-10 17 2 33l610 918q-3 110 -83.5 188t-190.5 78q-114 0 -195 -80.5t-81 -195.5q0 -12 -10 -22.5 t-23 -10.5t-23 10.5t-10 22.5z" />
<glyph unicode="3" horiz-adv-x="942" d="M129 342q0 14 9.5 23.5t23.5 9.5t23.5 -9.5t9.5 -23.5q0 -114 81 -195t195 -81t195.5 81t81.5 195t-81.5 195t-195.5 81q-13 0 -23 10t-10 23q0 12 10 22.5t23 10.5q114 0 195.5 80t81.5 194q0 115 -81.5 196t-195.5 81t-195 -81t-81 -196q0 -13 -9.5 -22.5t-23.5 -9.5 t-23.5 9.5t-9.5 22.5q0 141 100.5 241.5t241.5 100.5t241.5 -100.5t100.5 -241.5q0 -100 -54 -183.5t-143 -123.5q89 -42 143 -125.5t54 -183.5q0 -141 -100.5 -241.5t-241.5 -100.5t-241.5 100.5t-100.5 241.5z" />
<glyph unicode="4" horiz-adv-x="942" d="M133 326q-11 18 2 34l617 926q12 19 36 12q25 -7 25 -30v-1235q0 -13 -10.5 -23t-22.5 -10q-13 0 -22.5 9.5t-9.5 23.5v276h-586q-19 0 -29 17zM223 375h525v784z" />
<glyph unicode="5" horiz-adv-x="942" d="M129 342q0 14 9.5 23.5t23.5 9.5t23.5 -9.5t9.5 -23.5q0 -114 81 -195t195 -81t195.5 81t81.5 195v309q0 114 -81.5 194.5t-195.5 80.5t-195 -80.5t-81 -194.5q0 -13 -9.5 -23t-23.5 -10t-23.5 10t-9.5 23v662q0 13 9.5 23t23.5 10h618q12 0 22.5 -10t10.5 -23t-10.5 -23 t-22.5 -10h-585v-428q47 64 120 101.5t156 37.5q141 0 241.5 -99.5t100.5 -240.5v-309q0 -141 -100.5 -241.5t-241.5 -100.5t-241.5 100.5t-100.5 241.5z" />
<glyph unicode="6" horiz-adv-x="942" d="M129 342v616q0 141 100.5 241.5t241.5 100.5t241.5 -100.5t100.5 -241.5q0 -13 -10.5 -22.5t-22.5 -9.5q-14 0 -23 9t-9 23q0 115 -81.5 196t-195.5 81t-195 -81t-81 -196v-415q47 66 119 103.5t157 37.5q141 0 241.5 -100.5t100.5 -241.5t-100.5 -241.5t-241.5 -100.5 t-241.5 100.5t-100.5 241.5zM195 342q0 -114 81 -195t195 -81t195.5 81t81.5 195t-81.5 195t-195.5 81t-195 -81t-81 -195z" />
<glyph unicode="7" horiz-adv-x="942" d="M129 1270q0 14 9.5 23.5t23.5 9.5h618q17 0 27 -17q9 -13 2 -31l-619 -1235q-6 -18 -28 -18q-11 0 -15 2q-12 6 -16 19.5t2 25.5l594 1188h-565q-14 0 -23.5 9.5t-9.5 23.5z" />
<glyph unicode="8" horiz-adv-x="942" d="M129 342q0 100 54 183.5t143 125.5q-89 40 -143 123.5t-54 183.5q0 141 100.5 241.5t241.5 100.5t241.5 -100.5t100.5 -241.5q0 -100 -54.5 -183.5t-142.5 -123.5q88 -42 142.5 -125.5t54.5 -183.5q0 -141 -100.5 -241.5t-241.5 -100.5t-241.5 100.5t-100.5 241.5z M195 342q0 -114 81 -195t195 -81t195.5 81t81.5 195t-81.5 195t-195.5 81t-195 -81t-81 -195zM195 958q0 -114 81 -194t195 -80t195.5 80t81.5 194q0 115 -81.5 196t-195.5 81t-195 -81t-81 -196z" />
<glyph unicode="9" horiz-adv-x="942" d="M129 342q0 14 9.5 23.5t23.5 9.5t23.5 -9.5t9.5 -23.5q0 -114 81 -195t195 -81t195.5 81t81.5 195v416q-48 -64 -121 -102t-156 -38q-141 0 -241.5 99.5t-100.5 240.5t100.5 241.5t241.5 100.5t241.5 -100.5t100.5 -241.5v-616q0 -141 -100.5 -241.5t-241.5 -100.5 t-241.5 100.5t-100.5 241.5zM195 958q0 -114 81 -194t195 -80t195.5 80t81.5 194q0 115 -81.5 196t-195.5 81t-195 -81t-81 -196z" />
<glyph unicode=":" horiz-adv-x="249" d="M2 33v114q0 13 10 23t23 10t23 -10t10 -23v-114q0 -12 -10 -22.5t-23 -10.5t-23 10.5t-10 22.5zM2 342v115q0 13 9.5 22.5t23.5 9.5t23.5 -9.5t9.5 -22.5v-115q0 -14 -10 -23.5t-23 -9.5t-23 9.5t-10 23.5z" />
<glyph unicode=";" horiz-adv-x="288" d="M6 -82q-12 29 10 45q2 0 7 5t10.5 19t5.5 31v115q0 13 9.5 23t23.5 10q13 0 22.5 -9.5t9.5 -23.5v-115q0 -14 -2 -26.5t-5.5 -22.5t-8 -19t-8.5 -15t-9 -12t-8.5 -8.5t-6.5 -5.5l-3 -3q-12 -4 -18 -4q-19 0 -29 16zM39 328v114q0 12 10 22.5t23 10.5t22.5 -10.5 t9.5 -22.5v-114q0 -14 -9.5 -23.5t-22.5 -9.5q-14 0 -23.5 9.5t-9.5 23.5z" />
<glyph unicode="&#x3c;" />
<glyph unicode="=" />
<glyph unicode="&#x3e;" />
<glyph unicode="?" horiz-adv-x="743" d="M2 31v104q0 13 9.5 23t21.5 10q13 0 23 -10t10 -23v-104q0 -12 -10 -21.5t-23 -9.5q-12 0 -21.5 9.5t-9.5 21.5zM2 313q0 129 91.5 220.5t221.5 91.5q103 0 175.5 73t72.5 176t-72.5 175.5t-175.5 72.5q-104 0 -176.5 -72.5t-72.5 -175.5q0 -13 -9.5 -22.5t-23.5 -9.5 q-12 0 -21.5 9.5t-9.5 22.5q0 129 91.5 220.5t221.5 91.5q129 0 220.5 -91.5t91.5 -220.5t-91.5 -221t-220.5 -92q-104 0 -176.5 -72.5t-72.5 -175.5q0 -13 -9.5 -22.5t-23.5 -9.5q-12 0 -21.5 9.5t-9.5 22.5z" />
<glyph unicode="@" horiz-adv-x="839" d="M0 33v925q0 141 98.5 241.5t239.5 100.5t241.5 -100.5t100.5 -241.5v-688q0 -80 -45 -147t-117 -98q-52 -25 -110 -25q-113 0 -192 79t-79 191v688q0 83 59 142t142 59q82 0 140.5 -59t58.5 -142v-847q77 64 77 161v686q0 116 -80.5 196.5t-195.5 80.5q-114 0 -194.5 -81 t-80.5 -196v-925q0 -13 -10 -23t-22 -10q-13 0 -22 9.5t-9 23.5zM203 270q0 -85 60 -144.5t145 -59.5q30 0 63 10v882q0 57 -38.5 96.5t-94.5 39.5q-57 0 -96 -39.5t-39 -96.5v-688z" />
<glyph unicode="A" horiz-adv-x="847" d="M2 33v925q0 141 100.5 241.5t241.5 100.5t241.5 -100.5t100.5 -241.5v-925q0 -13 -10.5 -23t-22.5 -10q-14 0 -24.5 10t-10.5 23v276h-550v-276q0 -13 -10 -23t-23 -10t-23 10t-10 23zM68 375h550v583q0 115 -80 196t-194 81q-115 0 -195.5 -80.5t-80.5 -196.5v-583z" />
<glyph unicode="B" horiz-adv-x="839" d="M2 35v1235q0 14 10 23.5t23 9.5h309q141 0 241.5 -100.5t100.5 -241.5q0 -100 -54.5 -184t-142.5 -124q88 -42 142.5 -125.5t54.5 -183.5q0 -141 -100.5 -241.5t-241.5 -100.5h-309q-13 0 -23 10t-10 23zM68 68h276q114 0 194 81t80 195t-80 195.5t-194 81.5 q-14 0 -23.5 9.5t-9.5 22.5t9.5 23t23.5 10q114 0 194 80.5t80 194.5q0 115 -80 195.5t-194 80.5h-276v-1169z" />
<glyph unicode="C" horiz-adv-x="796" d="M2 342v616q0 141 100.5 241.5t241.5 100.5t241.5 -100.5t100.5 -241.5q0 -13 -10.5 -22.5t-22.5 -9.5q-14 0 -24.5 9.5t-10.5 22.5q0 115 -80 196t-194 81q-115 0 -195.5 -80.5t-80.5 -196.5v-616q0 -114 80.5 -195t195.5 -81q114 0 194 81t80 195q0 13 10.5 23t24.5 10 q12 0 22.5 -10t10.5 -23q0 -141 -100.5 -241.5t-241.5 -100.5t-241.5 100.5t-100.5 241.5z" />
<glyph unicode="D" horiz-adv-x="829" d="M2 33v1235q0 13 9.5 22.5t23.5 9.5q176 0 326 -87t237.5 -236.5t87.5 -325.5t-87.5 -326t-237.5 -237.5t-326 -87.5q-13 0 -23 10t-10 23zM68 68q151 8 277.5 87.5t199.5 211t73 284.5t-73 284.5t-199.5 211.5t-277.5 88v-1167z" />
<glyph unicode="E" horiz-adv-x="768" d="M2 33v1235q0 13 9.5 22.5t23.5 9.5h618q12 0 22.5 -9.5t10.5 -22.5t-10.5 -23t-22.5 -10h-585v-860h585q12 0 22.5 -11t10.5 -24q0 -12 -10.5 -22.5t-22.5 -10.5h-585v-241h585q12 0 22.5 -10t10.5 -23t-10.5 -23t-22.5 -10h-618q-13 0 -23 10t-10 23z" />
<glyph unicode="F" horiz-adv-x="751" d="M2 33v1235q0 13 9.5 22.5t23.5 9.5h618q12 0 22.5 -9.5t10.5 -22.5t-10.5 -23t-22.5 -10h-585v-860h585q12 0 22.5 -10t10.5 -23t-10.5 -23t-22.5 -10h-585v-276q0 -13 -10 -23t-23 -10t-23 10t-10 23z" />
<glyph unicode="G" horiz-adv-x="796" d="M2 342v616q0 141 100.5 241.5t241.5 100.5t241.5 -100.5t100.5 -241.5q0 -13 -10.5 -22.5t-22.5 -9.5q-14 0 -24.5 9.5t-10.5 22.5q0 115 -80 196t-194 81q-115 0 -195.5 -80.5t-80.5 -196.5v-616q0 -114 80.5 -195t195.5 -81q105 0 183.5 70t90.5 173h-274 q-14 0 -23.5 9.5t-9.5 23.5t9.5 23.5t23.5 9.5h309q12 0 22.5 -10t10.5 -23q0 -141 -100.5 -241.5t-241.5 -100.5t-241.5 100.5t-100.5 241.5z" />
<glyph unicode="H" horiz-adv-x="856" d="M2 33v1235q0 13 9.5 22.5t23.5 9.5t23.5 -9.5t9.5 -22.5v-893h550v893q0 13 10.5 22.5t24.5 9.5q12 0 22.5 -9.5t10.5 -22.5v-1235q0 -13 -10.5 -23t-22.5 -10q-14 0 -24.5 10t-10.5 23v276h-550v-276q0 -13 -10 -23t-23 -10t-23 10t-10 23z" />
<glyph unicode="I" horiz-adv-x="239" d="M2 33v1235q0 13 9.5 22.5t23.5 9.5t23.5 -9.5t9.5 -22.5v-1235q0 -13 -10 -23t-23 -10t-23 10t-10 23z" />
<glyph unicode="J" horiz-adv-x="854" d="M2 342q0 14 10 23.5t23 9.5t23 -9.5t10 -23.5q0 -114 80.5 -195t195.5 -81q114 0 194 81t80 195v926q0 13 10.5 22.5t24.5 9.5q12 0 22.5 -9.5t10.5 -22.5v-926q0 -141 -100.5 -241.5t-241.5 -100.5t-241.5 100.5t-100.5 241.5z" />
<glyph unicode="K" horiz-adv-x="825" d="M2 33v1229q0 12 10 22t23 10t23 -10t10 -22v-777l557 801q8 11 21 13t24 -5q12 -7 14 -21t-6 -26l-402 -575l404 -621q7 -12 4 -25.5t-14 -19.5q-9 -6 -19 -6q-15 0 -26 14l-389 598l-168 -241v-338q0 -13 -10 -23t-23 -10t-23 10t-10 23z" />
<glyph unicode="L" horiz-adv-x="759" d="M2 31v1235q0 13 9.5 22.5t23.5 9.5t23.5 -9.5t9.5 -22.5v-1203h585q12 0 22.5 -9.5t10.5 -22.5q0 -12 -10.5 -21.5t-22.5 -9.5h-618q-13 0 -23 9.5t-10 21.5z" />
<glyph unicode="M" horiz-adv-x="1474" d="M2 33v1235q0 22 23 30q24 7 36 -12l592 -885l590 885q13 19 37 12q23 -8 23 -30v-1235q0 -13 -9.5 -23t-23.5 -10t-23.5 10t-9.5 23v1126l-557 -835q-9 -15 -27 -15q-19 0 -28 15l-557 835v-1126q0 -13 -10 -23t-23 -10t-23 10t-10 23z" />
<glyph unicode="N" horiz-adv-x="856" d="M2 33v1235q0 10 7 19.5t18 12.5q27 3 36 -18l555 -1110v1096q0 13 10.5 22.5t24.5 9.5q12 0 22.5 -9.5t10.5 -22.5v-1235q0 -10 -8 -20t-19 -13h-6q-21 0 -30 18l-555 1110v-1095q0 -13 -10 -23t-23 -10t-23 10t-10 23z" />
<glyph unicode="O" horiz-adv-x="843" d="M2 342v616q0 141 100.5 241.5t241.5 100.5t241.5 -100.5t100.5 -241.5v-616q0 -141 -100.5 -241.5t-241.5 -100.5t-241.5 100.5t-100.5 241.5zM68 342q0 -114 80.5 -195t195.5 -81q114 0 194 81t80 195v616q0 115 -80 196t-194 81q-115 0 -195.5 -80.5t-80.5 -196.5v-616 z" />
<glyph unicode="P" horiz-adv-x="806" d="M2 33v1263q0 14 10 23.5t23 9.5h151q100 0 191.5 -37t161.5 -106q71 -69 109 -159.5t38 -190.5q0 -135 -67.5 -249.5t-182.5 -181.5t-250 -67h-118v-305q0 -13 -10 -23t-23 -10t-23 10t-10 23zM68 403h118q178 0 305 127t127 306q0 180 -124.5 304t-307.5 124h-118v-861z " />
<glyph unicode="Q" horiz-adv-x="845" d="M2 342v616q0 141 100.5 241.5t241.5 100.5t241.5 -100.5t100.5 -241.5v-616q0 -121 -80 -217l70 -70q9 -9 9 -22.5t-9 -22.5q-10 -10 -23 -10q-14 0 -24 10l-68 68q-94 -78 -217 -78q-141 0 -241.5 100.5t-100.5 241.5zM68 342q0 -114 80.5 -195t195.5 -81q95 0 170 59 l-195 192q-9 11 -9 25t9 23q10 9 24.5 9t23.5 -9l194 -193q57 72 57 170v616q0 115 -80 196t-194 81q-115 0 -195.5 -80.5t-80.5 -196.5v-616z" />
<glyph unicode="R" horiz-adv-x="839" d="M2 33v1235q0 13 9.5 22.5t23.5 9.5h151q100 0 191.5 -37t161.5 -106q71 -69 109 -159.5t38 -188.5q0 -152 -84.5 -276.5t-220.5 -184.5l293 -293q10 -9 10 -22.5t-10 -22.5q-10 -10 -23 -10q-12 0 -22 10l-316 316q-70 -17 -127 -17h-118v-276q0 -13 -10 -23t-23 -10 t-23 10t-10 23zM68 375h118q180 0 306 127t126 307q0 179 -124.5 302.5t-307.5 123.5h-118v-860z" />
<glyph unicode="S" horiz-adv-x="835" d="M2 342q0 14 10 23.5t23 9.5t23 -9.5t10 -23.5q0 -114 80.5 -195t195.5 -81q114 0 194 81t80 195t-80 195t-194 81q-141 0 -241.5 99.5t-100.5 240.5t100.5 241.5t241.5 100.5t241.5 -100.5t100.5 -241.5q0 -13 -10.5 -22.5t-22.5 -9.5q-14 0 -24.5 9.5t-10.5 22.5 q0 115 -80 196t-194 81q-115 0 -195.5 -80.5t-80.5 -196.5q0 -114 80.5 -194t195.5 -80q141 0 241.5 -100.5t100.5 -241.5t-100.5 -241.5t-241.5 -100.5t-241.5 100.5t-100.5 241.5z" />
<glyph unicode="T" horiz-adv-x="638" d="M2 1268q0 13 9.5 22.5t23.5 9.5h618q12 0 22.5 -9.5t10.5 -22.5t-10.5 -23t-22.5 -10h-276v-1202q0 -13 -9.5 -23t-23.5 -10t-23.5 10t-9.5 23v1202h-276q-13 0 -23 9.5t-10 23.5z" />
<glyph unicode="U" horiz-adv-x="854" d="M2 319v7v942q0 13 9.5 22.5t23.5 9.5t23.5 -9.5t9.5 -22.5v-926q0 -114 80.5 -195t195.5 -81q114 0 194 81t80 195v926q0 13 10.5 22.5t24.5 9.5q12 0 22.5 -9.5t10.5 -22.5v-926q0 -141 -100.5 -241.5t-241.5 -100.5q-136 0 -234.5 92.5t-107.5 226.5z" />
<glyph unicode="V" horiz-adv-x="821" d="M2 1260q-3 29 25 40q13 3 24.5 -3.5t16.5 -20.5l276 -1108l277 1108q3 13 14.5 20t23.5 4q14 -5 21 -16t4 -24l-309 -1235q-1 -10 -10.5 -17.5t-20.5 -7.5q-26 0 -33 25z" />
<glyph unicode="W" horiz-adv-x="1437" d="M2 1260q-3 29 25 40q13 3 24.5 -3.5t16.5 -20.5l276 -1108l277 1108q7 24 32 24q24 0 31 -24l277 -1108l276 1108q5 14 16.5 20.5t24.5 3.5q31 -12 25 -40l-310 -1235q-7 -25 -32 -25q-11 0 -20.5 7.5t-10.5 17.5l-277 1108l-278 -1108q-1 -10 -10.5 -17.5t-20.5 -7.5 q-26 0 -33 25z" />
<glyph unicode="X" horiz-adv-x="843" d="M6 47l301 604l-301 602q-11 30 14 43q12 6 24.5 2t18.5 -16l281 -559l279 559q6 12 19.5 16t25.5 -2t16 -18.5t-2 -24.5l-301 -602l301 -604q6 -12 2 -24.5t-16 -18.5q-12 -4 -15 -4q-21 0 -30 18l-279 560l-281 -560q-6 -18 -28 -18q-7 0 -15 4q-25 13 -14 43z" />
<glyph unicode="Y" horiz-adv-x="804" d="M6 1253q-11 30 14 43q12 6 24.5 2t18.5 -16l281 -559l279 559q6 12 19.5 16t25.5 -2t16 -18.5t-2 -24.5l-305 -610v-610q0 -13 -9.5 -23t-23.5 -10t-23.5 10t-9.5 23v610z" />
<glyph unicode="Z" horiz-adv-x="800" d="M2 1270q0 12 10 22.5t23 10.5h618q17 0 27 -17q9 -15 2 -33l-594 -1185h565q12 0 22.5 -10.5t10.5 -22.5q0 -13 -10.5 -24t-22.5 -11h-618q-19 0 -29 16t0 33l594 1188h-565q-13 0 -23 9.5t-10 23.5z" />
<glyph unicode="[" />
<glyph unicode="\" />
<glyph unicode="]" />
<glyph unicode="^" />
<glyph unicode="_" />
<glyph unicode="`" />
<glyph unicode="a" horiz-adv-x="862" d="M2 342q0 141 100.5 241.5t241.5 100.5t241.5 -100.5t100.5 -241.5v-309q0 -13 -10.5 -23t-22.5 -10q-14 0 -24.5 10t-10.5 23v108q-46 -66 -118 -103.5t-156 -37.5q-141 0 -241.5 100.5t-100.5 241.5zM68 342q0 -114 80.5 -195t195.5 -81q114 0 194 81t80 195t-80 195 t-194 81q-115 0 -195.5 -81t-80.5 -195z" />
<glyph unicode="b" horiz-adv-x="837" d="M2 342v926q0 13 9.5 22.5t23.5 9.5t23.5 -9.5t9.5 -22.5v-725q47 66 119 103.5t157 37.5q141 0 241.5 -100.5t100.5 -241.5t-100.5 -241.5t-241.5 -100.5t-241.5 100.5t-100.5 241.5zM68 342q0 -114 80.5 -195t195.5 -81q114 0 194 81t80 195t-80 195t-194 81 q-115 0 -195.5 -81t-80.5 -195z" />
<glyph unicode="c" horiz-adv-x="710" d="M2 342q0 141 100.5 241.5t241.5 100.5q137 0 242 -100q9 -11 9 -24.5t-9 -22.5q-10 -9 -24 -9t-23 9q-78 81 -195 81q-115 0 -195.5 -81t-80.5 -195t80.5 -195t195.5 -81q117 0 195 81q9 9 23 9t24 -9q9 -11 9 -24.5t-9 -22.5q-100 -100 -242 -100q-141 0 -241.5 100.5 t-100.5 241.5z" />
<glyph unicode="d" horiz-adv-x="854" d="M2 342q0 141 100.5 241.5t241.5 100.5q84 0 156 -37.5t118 -103.5v725q0 13 10.5 22.5t24.5 9.5q12 0 22.5 -9.5t10.5 -22.5v-926q0 -141 -100.5 -241.5t-241.5 -100.5t-241.5 100.5t-100.5 241.5zM68 342q0 -114 80.5 -195t195.5 -81q114 0 194 81t80 195t-80 195 t-194 81q-115 0 -195.5 -81t-80.5 -195z" />
<glyph unicode="e" horiz-adv-x="833" d="M2 342q0 141 100.5 241.5t241.5 100.5t241.5 -100.5t100.5 -241.5q0 -13 -10.5 -23t-22.5 -10h-583q12 -103 90.5 -173t183.5 -70q117 0 195 81q9 9 23 9t24 -9q9 -11 9 -24.5t-9 -22.5q-100 -100 -242 -100q-141 0 -241.5 100.5t-100.5 241.5zM70 375h546 q-11 103 -89 173t-183 70t-183.5 -70t-90.5 -173z" />
<glyph unicode="f" horiz-adv-x="638" d="M2 33v930q0 141 100.5 241.5t241.5 100.5t241.5 -100.5t100.5 -241.5q0 -13 -10.5 -23t-22.5 -10q-14 0 -24.5 10t-10.5 23q0 114 -80 195t-194 81t-195 -81t-81 -195v-588h276q14 0 23.5 -9.5t9.5 -23.5t-9.5 -23.5t-23.5 -9.5h-276v-276q0 -13 -10 -23t-23 -10t-23 10 t-10 23z" />
<glyph unicode="g" horiz-adv-x="849" d="M2 -276q0 13 9.5 22.5t23.5 9.5t23.5 -9.5t9.5 -22.5q0 -113 80 -194t194 -81t194 81t80 194v411q-48 -64 -119.5 -100.5t-154.5 -36.5q-141 0 -240.5 99t-99.5 239t99.5 240t240.5 100q140 0 240 -100t100 -240v-612q0 -139 -100 -238.5t-240 -99.5q-141 0 -240.5 99 t-99.5 239zM68 336q0 -114 80 -194.5t194 -80.5t194 80.5t80 194.5t-80 194t-194 80t-194 -80t-80 -194z" />
<glyph unicode="h" horiz-adv-x="856" d="M2 33v1235q0 13 9.5 22.5t23.5 9.5t23.5 -9.5t9.5 -22.5v-725q47 66 119 103.5t157 37.5q141 0 241.5 -100.5t100.5 -241.5v-309q0 -13 -10.5 -23t-22.5 -10q-14 0 -24.5 10t-10.5 23v309q0 114 -80 195t-194 81q-115 0 -195.5 -81t-80.5 -195v-309q0 -13 -10 -23 t-23 -10t-23 10t-10 23z" />
<glyph unicode="i" horiz-adv-x="237" d="M2 33v618q0 12 10 22.5t23 10.5t23 -10.5t10 -22.5v-618q0 -13 -10 -23t-23 -10t-23 10t-10 23zM2 969v299q0 13 9.5 22.5t23.5 9.5t23.5 -9.5t9.5 -22.5v-299q0 -13 -10 -23t-23 -10t-23 10t-10 23z" />
<glyph unicode="j" horiz-adv-x="843" d="M2 -264q0 14 10 23.5t23 9.5t23 -9.5t10 -23.5q0 -114 80 -194.5t194 -80.5t194 80.5t80 194.5v917q0 13 10 23t23 10q12 0 22.5 -10t10.5 -23v-917q0 -141 -100 -240.5t-240 -99.5q-141 0 -240.5 99.5t-99.5 240.5zM616 971v297q0 13 9.5 22.5t23.5 9.5q12 0 22.5 -9.5 t10.5 -22.5v-297q0 -13 -10.5 -23t-22.5 -10q-13 0 -23 10t-10 23z" />
<glyph unicode="k" horiz-adv-x="845" d="M2 33v1235q0 13 9.5 22.5t23.5 9.5t23.5 -9.5t9.5 -22.5v-865l567 265q14 6 26.5 1.5t18.5 -16.5t1 -25.5t-17 -19.5l-273 -127l289 -434q8 -12 5 -26t-15 -21q-2 0 -8 -1t-9 -1q-21 0 -28 12l-293 445l-264 -123v-299q0 -13 -10 -23t-23 -10t-23 10t-10 23z" />
<glyph unicode="l" horiz-adv-x="239" d="M2 33v1235q0 13 9.5 22.5t23.5 9.5t23.5 -9.5t9.5 -22.5v-1235q0 -13 -10 -23t-23 -10t-23 10t-10 23z" />
<glyph unicode="m" horiz-adv-x="1480" d="M2 33v309q0 141 100.5 241.5t241.5 100.5q100 0 183.5 -54.5t125.5 -142.5q40 88 124 142.5t184 54.5q141 0 241.5 -100.5t100.5 -241.5v-309q0 -13 -9.5 -23t-23.5 -10t-23.5 10t-9.5 23v309q0 114 -80.5 195t-195.5 81q-114 0 -194.5 -81t-80.5 -195v-309 q0 -13 -10.5 -23t-22.5 -10q-14 0 -24.5 10t-10.5 23v309q0 114 -80 195t-194 81q-115 0 -195.5 -81t-80.5 -195v-309q0 -13 -10 -23t-23 -10t-23 10t-10 23z" />
<glyph unicode="n" horiz-adv-x="862" d="M2 33v309q0 141 100.5 241.5t241.5 100.5t241.5 -100.5t100.5 -241.5v-309q0 -13 -10.5 -23t-22.5 -10q-14 0 -24.5 10t-10.5 23v309q0 114 -80 195t-194 81q-115 0 -195.5 -81t-80.5 -195v-309q0 -13 -10 -23t-23 -10t-23 10t-10 23z" />
<glyph unicode="o" horiz-adv-x="858" d="M2 342q0 141 100.5 241.5t241.5 100.5t241.5 -100.5t100.5 -241.5t-100.5 -241.5t-241.5 -100.5t-241.5 100.5t-100.5 241.5zM68 342q0 -114 80.5 -195t195.5 -81q114 0 194 81t80 195t-80 195t-194 81q-115 0 -195.5 -81t-80.5 -195z" />
<glyph unicode="p" horiz-adv-x="843" d="M2 340q0 140 99.5 240t240.5 100q140 0 240 -100t100 -240q0 -141 -100 -240.5t-240 -99.5q-83 0 -155 37.5t-119 101.5v-719q0 -13 -9.5 -22.5t-23.5 -9.5t-23.5 9.5t-9.5 22.5v920zM68 340q0 -114 80 -194t194 -80t194 80t80 194t-80 194t-194 80t-194 -80t-80 -194z " />
<glyph unicode="q" horiz-adv-x="851" d="M2 340q0 140 99.5 240t240.5 100q140 0 240 -100t100 -240v-920q0 -13 -10.5 -22.5t-22.5 -9.5q-14 0 -23.5 9.5t-9.5 22.5v261h-274q-14 0 -23.5 9.5t-9.5 22.5t9.5 23t23.5 10h274v393q-48 -65 -119.5 -102t-154.5 -37q-141 0 -240.5 99.5t-99.5 240.5zM68 340 q0 -114 80 -194t194 -80t194 80t80 194t-80 194t-194 80t-194 -80t-80 -194z" />
<glyph unicode="r" horiz-adv-x="804" d="M2 33v309q0 141 100.5 241.5t241.5 100.5t241.5 -100.5t100.5 -241.5q0 -13 -10.5 -23t-22.5 -10q-14 0 -24.5 10t-10.5 23q0 114 -80 195t-194 81q-115 0 -195.5 -81t-80.5 -195v-309q0 -13 -10 -23t-23 -10t-23 10t-10 23z" />
<glyph unicode="s" horiz-adv-x="847" d="M2 186q0 14 10 23.5t23 9.5t23 -9.5t10 -23.5q0 -50 35 -85t85 -35h310q51 0 85.5 35t34.5 85q0 51 -34.5 87t-85.5 36h-310q-76 0 -131 55t-55 132q0 78 54.5 133t131.5 55h310q78 0 133 -55t55 -133q0 -13 -10.5 -23t-22.5 -10q-14 0 -24.5 10t-10.5 23 q0 51 -34.5 86.5t-85.5 35.5h-310q-50 0 -85 -35.5t-35 -86.5t35 -86t85 -35h310q78 0 133 -55.5t55 -133.5q0 -77 -55 -131.5t-133 -54.5h-310q-76 0 -131 55t-55 131z" />
<glyph unicode="t" horiz-adv-x="638" d="M2 958q0 14 10 23.5t23 9.5h276v277q0 13 9.5 22.5t23.5 9.5t23.5 -9.5t9.5 -22.5v-277h276q12 0 22.5 -10t10.5 -23t-10.5 -22.5t-22.5 -9.5h-276v-893q0 -13 -9.5 -23t-23.5 -10t-23.5 10t-9.5 23v893h-276q-14 0 -23.5 9.5t-9.5 22.5z" />
<glyph unicode="u" horiz-adv-x="862" d="M2 342v309q0 12 10 22.5t23 10.5t23 -10.5t10 -22.5v-309q0 -114 80.5 -195t195.5 -81q114 0 194 81t80 195v309q0 12 11 22.5t24 10.5q12 0 22.5 -10.5t10.5 -22.5v-309q0 -141 -100.5 -241.5t-241.5 -100.5t-241.5 100.5t-100.5 241.5z" />
<glyph unicode="v" horiz-adv-x="802" d="M4.5 660.5q3.5 13.5 15.5 19.5t24.5 2t18.5 -16l281 -560l279 560q6 12 19.5 16t25.5 -2t16 -19.5t-2 -25.5l-309 -617q-9 -18 -29 -18q-22 0 -31 18l-307 617q-5 12 -1.5 25.5z" />
<glyph unicode="w" horiz-adv-x="1419" d="M4.5 660.5q3.5 13.5 15.5 19.5t24.5 2t18.5 -16l281 -560l279 560q11 18 30 18q18 0 29 -18l279 -560l280 560q6 12 18.5 16t24.5 -2t16 -19.5t-2 -25.5l-307 -617q-9 -18 -30 -18q-20 0 -29 18l-279 560l-280 -560q-9 -18 -29 -18q-22 0 -31 18l-307 617 q-5 12 -1.5 25.5z" />
<glyph unicode="x" horiz-adv-x="849" d="M3 36.5q0 13.5 9 24.5l285 285l-285 285q-9 10 -9 24t9 23t22.5 9t22.5 -9l287 -285l285 285q9 9 23.5 9t23.5 -9t9 -23t-9 -24l-287 -285l287 -285q9 -10 9 -24t-9 -23q-10 -10 -23 -10q-14 0 -24 10l-285 285l-287 -285q-10 -10 -22 -10q-13 0 -23 10q-9 9 -9 22.5z " />
<glyph unicode="y" horiz-adv-x="854" d="M2 -272q0 13 9.5 22.5t23.5 9.5t23.5 -9.5t9.5 -22.5q0 -114 80 -194.5t194 -80.5t194 80.5t80 194.5v411q-48 -65 -119.5 -102t-154.5 -37q-141 0 -240.5 99.5t-99.5 240.5v307q0 12 10 22.5t23 10.5t23 -10.5t10 -22.5v-307q0 -114 80 -194t194 -80t194 80t80 194v307 q0 12 10 22.5t23 10.5q12 0 22.5 -10.5t10.5 -22.5v-307v-612q0 -140 -100 -240t-240 -100q-141 0 -240.5 100t-99.5 240z" />
<glyph unicode="z" horiz-adv-x="827" d="M2 39q0 15 220 233t351 344h-538q-13 0 -23 10.5t-10 22.5q0 13 10 23t23 10h618q31 0 31 -39q0 -7 -53 -63t-133.5 -137t-158 -157t-146.5 -143.5t-78 -76.5h538q12 0 22.5 -10t10.5 -23t-10.5 -23t-22.5 -10h-618q-33 0 -33 39z" />
<glyph unicode="{" />
<glyph unicode="|" />
<glyph unicode="}" />
<glyph unicode="~" />
<glyph unicode="&#xa0;" />
<glyph unicode="&#xa1;" horiz-adv-x="241" d="M2 -137v839q0 13 9.5 23t21.5 10q13 0 23 -9.5t10 -23.5v-839q0 -13 -10 -23t-23 -10q-12 0 -21.5 10t-9.5 23zM2 879v104q0 13 9.5 23t21.5 10q13 0 23 -10t10 -23v-104q0 -12 -10 -21.5t-23 -9.5q-12 0 -21.5 9.5t-9.5 21.5z" />
<glyph unicode="&#xa2;" />
<glyph unicode="&#xa3;" horiz-adv-x="790" d="M2 37v926q0 141 100.5 241.5t241.5 100.5t241.5 -100.5t100.5 -241.5q0 -13 -10.5 -23t-22.5 -10q-14 0 -24.5 10t-10.5 23q0 114 -80 195t-194 81q-115 0 -195.5 -81t-80.5 -195v-277h276q14 0 23.5 -10t9.5 -23t-9.5 -22.5t-23.5 -9.5h-276v-549q103 12 173 90t70 182 q0 14 9.5 23.5t23.5 9.5t23.5 -9.5t9.5 -23.5q0 -114 80.5 -194t195.5 -80q12 0 22.5 -10t10.5 -23t-10.5 -23t-22.5 -10q-101 0 -184 53.5t-125 141.5q-42 -88 -125.5 -141.5t-183.5 -53.5q-13 0 -23 10t-10 23z" />
<glyph unicode="&#xa4;" />
<glyph unicode="&#xa5;" horiz-adv-x="821" d="M2 342q0 14 10 23.5t23 9.5h276v243h-276q-13 0 -23 10t-10 23q0 12 10 22.5t23 10.5h256l-285 569q-11 30 14 43q12 6 24.5 2t18.5 -16l281 -559l279 559q6 12 19.5 16t25.5 -2t16 -18.5t-2 -24.5l-285 -569h256q12 0 22.5 -10.5t10.5 -22.5q0 -13 -10.5 -23t-22.5 -10 h-276v-243h276q12 0 22.5 -10t10.5 -23t-10.5 -23t-22.5 -10h-276v-276q0 -13 -9.5 -23t-23.5 -10t-23.5 10t-9.5 23v276h-276q-13 0 -23 9.5t-10 23.5z" />
<glyph unicode="&#xa6;" />
<glyph unicode="&#xa7;" />
<glyph unicode="&#xa8;" />
<glyph unicode="&#xa9;" />
<glyph unicode="&#xaa;" />
<glyph unicode="&#xab;" />
<glyph unicode="&#xac;" />
<glyph unicode="&#xad;" />
<glyph unicode="&#xae;" />
<glyph unicode="&#xaf;" />
<glyph unicode="&#xb0;" />
<glyph unicode="&#xb1;" />
<glyph unicode="&#xb2;" />
<glyph unicode="&#xb3;" />
<glyph unicode="&#xb4;" />
<glyph unicode="&#xb5;" />
<glyph unicode="&#xb6;" />
<glyph unicode="&#xb7;" />
<glyph unicode="&#xb8;" />
<glyph unicode="&#xb9;" />
<glyph unicode="&#xba;" />
<glyph unicode="&#xbb;" />
<glyph unicode="&#xbc;" />
<glyph unicode="&#xbd;" />
<glyph unicode="&#xbe;" />
<glyph unicode="&#xbf;" horiz-adv-x="819" d="M2 158q0 141 100.5 241.5t241.5 100.5q114 0 194 80t80 194q0 13 10.5 23t24.5 10q12 0 22.5 -10t10.5 -23q0 -141 -100.5 -240.5t-241.5 -99.5q-115 0 -195.5 -81t-80.5 -195t80.5 -194.5t195.5 -80.5q114 0 194 80.5t80 194.5q0 13 10.5 22.5t24.5 9.5q12 0 22.5 -9.5 t10.5 -22.5q0 -140 -100.5 -240t-241.5 -100t-241.5 100t-100.5 240zM618 969v114q0 13 10.5 23t24.5 10q12 0 22.5 -10t10.5 -23v-114q0 -12 -10.5 -22.5t-22.5 -10.5q-13 0 -24 10.5t-11 22.5z" />
<glyph unicode="&#xc0;" horiz-adv-x="847" d="M2 33v925q0 141 100.5 241.5t241.5 100.5t241.5 -100.5t100.5 -241.5v-925q0 -13 -10.5 -23t-22.5 -10q-14 0 -24.5 10t-10.5 23v276h-550v-276q0 -13 -10 -23t-23 -10t-23 10t-10 23zM68 375h550v583q0 115 -80 196t-194 81q-115 0 -195.5 -80.5t-80.5 -196.5v-583z M100 1719.5q0 14.5 9 23.5t23.5 9t23.5 -9l250 -250q9 -11 9 -24.5t-9 -22.5t-23 -9t-25 9l-249 250q-9 9 -9 23.5z" />
<glyph unicode="&#xc1;" horiz-adv-x="847" d="M2 33v925q0 141 100.5 241.5t241.5 100.5t241.5 -100.5t100.5 -241.5v-925q0 -13 -10.5 -23t-22.5 -10q-14 0 -24.5 10t-10.5 23v276h-550v-276q0 -13 -10 -23t-23 -10t-23 10t-10 23zM68 375h550v583q0 115 -80 196t-194 81q-115 0 -195.5 -80.5t-80.5 -196.5v-583z M284 1464.5q0 13.5 9 24.5l250 250q10 9 24 9t23 -9t9 -23.5t-9 -23.5l-250 -250q-9 -9 -23.5 -9t-23.5 9t-9 22.5z" />
<glyph unicode="&#xc2;" horiz-adv-x="847" d="M2 33v925q0 141 100.5 241.5t241.5 100.5t241.5 -100.5t100.5 -241.5v-925q0 -13 -10.5 -23t-22.5 -10q-14 0 -24.5 10t-10.5 23v276h-550v-276q0 -13 -10 -23t-23 -10t-23 10t-10 23zM65 1461.5q0 14.5 9 23.5l250 250q9 9 23.5 9t23.5 -9l250 -250q9 -9 9 -23.5 t-9 -23.5t-23 -9t-25 9l-227 227l-227 -227q-9 -9 -22.5 -9t-22.5 9t-9 23.5zM68 375h550v583q0 115 -80 196t-194 81q-115 0 -195.5 -80.5t-80.5 -196.5v-583z" />
<glyph unicode="&#xc3;" horiz-adv-x="847" d="M2 33v925q0 141 100.5 241.5t241.5 100.5t241.5 -100.5t100.5 -241.5v-925q0 -13 -10.5 -23t-22.5 -10q-14 0 -24.5 10t-10.5 23v276h-550v-276q0 -13 -10 -23t-23 -10t-23 10t-10 23zM68 375h550v583q0 115 -80 196t-194 81q-115 0 -195.5 -80.5t-80.5 -196.5v-583z M133 1460q0 12 10 22.5t23 10.5h354q13 0 23 -10.5t10 -22.5q0 -14 -9.5 -23.5t-23.5 -9.5h-354q-14 0 -23.5 9.5t-9.5 23.5z" />
<glyph unicode="&#xc4;" horiz-adv-x="847" d="M2 33v925q0 141 100.5 241.5t241.5 100.5t241.5 -100.5t100.5 -241.5v-925q0 -13 -10.5 -23t-22.5 -10q-14 0 -24.5 10t-10.5 23v276h-550v-276q0 -13 -10 -23t-23 -10t-23 10t-10 23zM68 375h550v583q0 115 -80 196t-194 81q-115 0 -195.5 -80.5t-80.5 -196.5v-583z M193 1460v299q0 14 9.5 23.5t22.5 9.5t23 -10t10 -23v-299q0 -14 -10 -23.5t-23 -9.5t-22.5 9.5t-9.5 23.5zM422 1460v299q0 13 10 23t23 10t22.5 -9.5t9.5 -23.5v-299q0 -14 -9.5 -23.5t-22.5 -9.5t-23 9.5t-10 23.5z" />
<glyph unicode="&#xc5;" horiz-adv-x="847" d="M2 33v925q0 141 100.5 241.5t241.5 100.5t241.5 -100.5t100.5 -241.5v-925q0 -13 -10.5 -23t-22.5 -10q-14 0 -24.5 10t-10.5 23v276h-550v-276q0 -13 -10 -23t-23 -10t-23 10t-10 23zM68 375h550v583q0 115 -80 196t-194 81q-115 0 -195.5 -80.5t-80.5 -196.5v-583z M158 1608q0 78 54.5 133t131.5 55q78 0 133 -55t55 -133q0 -77 -55 -132t-133 -55q-76 0 -131 55t-55 132zM223 1608q0 -51 35.5 -86t85.5 -35q51 0 87 35t36 86t-36 86t-87 35q-50 0 -85.5 -35t-35.5 -86z" />
<glyph unicode="&#xc6;" />
<glyph unicode="&#xc7;" horiz-adv-x="798" d="M2 342v616q0 141 100.5 241.5t241.5 100.5t241.5 -100.5t100.5 -241.5q0 -13 -10.5 -22.5t-22.5 -9.5q-14 0 -24.5 9.5t-10.5 22.5q0 115 -80 196t-194 81q-115 0 -195.5 -80.5t-80.5 -196.5v-616q0 -114 80.5 -195t195.5 -81q95 0 170 59l-195 192q-9 11 -9 25t9 23 q10 9 24.5 9t23.5 -9l194 -193q57 72 57 170q0 13 10.5 23t24.5 10q12 0 22.5 -10t10.5 -23q0 -121 -80 -217l70 -70q9 -9 9 -22.5t-9 -22.5q-10 -10 -23 -10q-14 0 -24 10l-68 68q-94 -78 -217 -78q-141 0 -241.5 100.5t-100.5 241.5z" />
<glyph unicode="&#xc8;" horiz-adv-x="768" d="M2 33v1235q0 13 9.5 22.5t23.5 9.5h618q12 0 22.5 -9.5t10.5 -22.5q0 -12 -10.5 -22.5t-22.5 -10.5h-585v-860h585q12 0 22.5 -10t10.5 -23t-10.5 -23t-22.5 -10h-585v-243h585q12 0 22.5 -10t10.5 -23q0 -12 -10.5 -22.5t-22.5 -10.5h-618q-13 0 -23 10.5t-10 22.5z M102 1719.5q0 14.5 9 23.5t22.5 9t24.5 -9l250 -250q9 -11 9 -24.5t-9 -22.5t-23.5 -9t-24.5 9l-249 250q-9 9 -9 23.5z" />
<glyph unicode="&#xc9;" horiz-adv-x="768" d="M2 33v1235q0 13 9.5 22.5t23.5 9.5h618q12 0 22.5 -9.5t10.5 -22.5q0 -12 -10.5 -22.5t-22.5 -10.5h-585v-860h585q12 0 22.5 -10t10.5 -23t-10.5 -23t-22.5 -10h-585v-243h585q12 0 22.5 -10t10.5 -23q0 -12 -10.5 -22.5t-22.5 -10.5h-618q-13 0 -23 10.5t-10 22.5z M286 1464.5q0 13.5 9 24.5l250 250q11 9 24.5 9t22.5 -9t9 -23.5t-9 -23.5l-250 -250q-10 -9 -24 -9t-23 9t-9 22.5z" />
<glyph unicode="&#xca;" horiz-adv-x="768" d="M2 33v1235q0 13 9.5 22.5t23.5 9.5h618q12 0 22.5 -9.5t10.5 -22.5q0 -12 -10.5 -22.5t-22.5 -10.5h-585v-860h585q12 0 22.5 -10t10.5 -23t-10.5 -23t-22.5 -10h-585v-243h585q12 0 22.5 -10t10.5 -23q0 -12 -10.5 -22.5t-22.5 -10.5h-618q-13 0 -23 10.5t-10 22.5z M66.5 1461.5q-0.5 14.5 9.5 23.5l250 250q9 9 23 9t24 -9l250 -250q9 -9 9 -23.5t-9 -23.5t-23 -9t-25 9l-227 227l-227 -227q-9 -9 -22.5 -9t-22.5 9t-9.5 23.5z" />
<glyph unicode="&#xcb;" horiz-adv-x="768" d="M2 33v1235q0 13 9.5 22.5t23.5 9.5h618q12 0 22.5 -9.5t10.5 -22.5q0 -12 -10.5 -22.5t-22.5 -10.5h-585v-860h585q12 0 22.5 -10t10.5 -23t-10.5 -23t-22.5 -10h-585v-243h585q12 0 22.5 -10t10.5 -23q0 -12 -10.5 -22.5t-22.5 -10.5h-618q-13 0 -23 10.5t-10 22.5z M195 1460v299q0 14 9.5 23.5t22.5 9.5t23 -10t10 -23v-299q0 -14 -10 -23.5t-23 -9.5t-22.5 9.5t-9.5 23.5zM424 1460v299q0 13 10 23t23 10q12 0 22 -10t10 -23v-299q0 -13 -10 -23t-22 -10q-13 0 -23 9.5t-10 23.5z" />
<glyph unicode="&#xcc;" horiz-adv-x="468" d="M3 1719.5q0 14.5 9 23.5t22.5 9t22.5 -9l252 -250q9 -11 9 -24.5t-9 -22.5q-10 -9 -24 -9t-23 9l-250 250q-9 9 -9 23.5zM231 33v1235q0 13 9.5 22.5t23.5 9.5t23.5 -9.5t9.5 -22.5v-1235q0 -13 -9.5 -23t-23.5 -10t-23.5 10t-9.5 23z" />
<glyph unicode="&#xcd;" horiz-adv-x="296" d="M3 1464.5q0 13.5 9 24.5l250 250q9 9 23 9t24 -9q9 -9 9 -23.5t-9 -23.5l-252 -250q-9 -9 -22.5 -9t-22.5 9t-9 22.5zM12 33v1235q0 13 9.5 22.5t23.5 9.5t23.5 -9.5t9.5 -22.5v-1235q0 -13 -10 -23t-23 -10t-23 10t-10 23z" />
<glyph unicode="&#xce;" horiz-adv-x="530" d="M3 1461.5q0 14.5 9 23.5l250 250q9 9 23 9t24 -9l250 -250q9 -9 9 -23.5t-9 -23.5t-22.5 -9t-24.5 9l-227 227l-228 -227q-9 -9 -22.5 -9t-22.5 9t-9 23.5zM252 33v1235q0 13 10.5 22.5t22.5 9.5q13 0 22.5 -9t9.5 -23v-1235q0 -14 -9.5 -23.5t-22.5 -9.5q-12 0 -22.5 10 t-10.5 23z" />
<glyph unicode="&#xcf;" horiz-adv-x="366" d="M2 1460v299q0 13 10 23t23 10t23 -10t10 -23v-299q0 -14 -10 -23.5t-23 -9.5t-23 9.5t-10 23.5zM129 33v1235q0 13 10.5 22.5t24.5 9.5q12 0 22.5 -9.5t10.5 -22.5v-1235q0 -13 -10.5 -23t-22.5 -10q-14 0 -24.5 10t-10.5 23zM231 1460v299q0 13 9.5 23t23.5 10t23.5 -10 t9.5 -23v-299q0 -14 -9.5 -23.5t-23.5 -9.5t-23.5 9.5t-9.5 23.5z" />
<glyph unicode="&#xd0;" />
<glyph unicode="&#xd1;" />
<glyph unicode="&#xd2;" horiz-adv-x="843" d="M2 342v616q0 141 100.5 241.5t241.5 100.5t241.5 -100.5t100.5 -241.5v-616q0 -141 -100.5 -241.5t-241.5 -100.5t-241.5 100.5t-100.5 241.5zM68 342q0 -114 80.5 -195t195.5 -81q114 0 194 81t80 195v616q0 115 -80 196t-194 81q-115 0 -195.5 -80.5t-80.5 -196.5v-616 zM102 1719.5q0 14.5 11 23.5q9 9 22.5 9t22.5 -9l252 -250q9 -11 9 -24.5t-9 -22.5q-11 -9 -25 -9t-23 9l-249 250q-11 9 -11 23.5z" />
<glyph unicode="&#xd3;" horiz-adv-x="843" d="M2 342v616q0 141 100.5 241.5t241.5 100.5t241.5 -100.5t100.5 -241.5v-616q0 -141 -100.5 -241.5t-241.5 -100.5t-241.5 100.5t-100.5 241.5zM68 342q0 -114 80.5 -195t195.5 -81q114 0 194 81t80 195v616q0 115 -80 196t-194 81q-115 0 -195.5 -80.5t-80.5 -196.5v-616 zM286 1464.5q0 13.5 11 24.5l250 250q9 9 22.5 9t24.5 -9q9 -9 9 -23.5t-9 -23.5l-252 -250q-9 -9 -22.5 -9t-22.5 9q-11 9 -11 22.5z" />
<glyph unicode="&#xd4;" horiz-adv-x="843" d="M2 342v616q0 141 100.5 241.5t241.5 100.5t241.5 -100.5t100.5 -241.5v-616q0 -141 -100.5 -241.5t-241.5 -100.5t-241.5 100.5t-100.5 241.5zM67 1461.5q0 14.5 9 23.5l252 250q9 9 22.5 9t22.5 -9l252 -250q9 -9 9 -23.5t-9 -23.5q-11 -9 -24.5 -9t-22.5 9l-228 227 l-227 -227q-9 -9 -23 -9t-24 9q-9 9 -9 23.5zM68 342q0 -114 80.5 -195t195.5 -81q114 0 194 81t80 195v616q0 115 -80 196t-194 81q-115 0 -195.5 -80.5t-80.5 -196.5v-616z" />
<glyph unicode="&#xd5;" horiz-adv-x="843" d="M2 342v616q0 141 100.5 241.5t241.5 100.5t241.5 -100.5t100.5 -241.5v-616q0 -141 -100.5 -241.5t-241.5 -100.5t-241.5 100.5t-100.5 241.5zM68 342q0 -114 80.5 -195t195.5 -81q114 0 194 81t80 195v616q0 115 -80 196t-194 81q-115 0 -195.5 -80.5t-80.5 -196.5v-616 zM133 1460q0 12 10 22.5t23 10.5h354q13 0 23 -10.5t10 -22.5q0 -14 -9.5 -23.5t-23.5 -9.5h-354q-14 0 -23.5 9.5t-9.5 23.5z" />
<glyph unicode="&#xd6;" horiz-adv-x="843" d="M2 342v616q0 141 100.5 241.5t241.5 100.5t241.5 -100.5t100.5 -241.5v-616q0 -141 -100.5 -241.5t-241.5 -100.5t-241.5 100.5t-100.5 241.5zM68 342q0 -114 80.5 -195t195.5 -81q114 0 194 81t80 195v616q0 115 -80 196t-194 81q-115 0 -195.5 -80.5t-80.5 -196.5v-616 zM197 1460v299q0 14 9.5 23.5t22.5 9.5q12 0 22.5 -10t10.5 -23v-299q0 -13 -10.5 -23t-22.5 -10q-13 0 -22.5 9.5t-9.5 23.5zM424 1460v299q0 13 10 23t23 10t22.5 -9.5t9.5 -23.5v-299q0 -14 -9.5 -23.5t-22.5 -9.5t-23 9.5t-10 23.5z" />
<glyph unicode="&#xd7;" />
<glyph unicode="&#xd8;" />
<glyph unicode="&#xd9;" horiz-adv-x="854" d="M2 342v926q0 13 9.5 22.5t23.5 9.5t23.5 -9.5t9.5 -22.5v-926q0 -114 80.5 -195t195.5 -81q114 0 194 81t80 195v926q0 13 10.5 22.5t24.5 9.5q12 0 22.5 -9.5t10.5 -22.5v-926q0 -141 -100.5 -241.5t-241.5 -100.5t-241.5 100.5t-100.5 241.5zM100 1719.5 q0 14.5 11 23.5q9 9 22.5 9t22.5 -9l252 -250q9 -11 9 -24.5t-9 -22.5q-10 -9 -24.5 -9t-23.5 9l-249 250q-11 9 -11 23.5z" />
<glyph unicode="&#xda;" horiz-adv-x="854" d="M2 342v926q0 13 9.5 22.5t23.5 9.5t23.5 -9.5t9.5 -22.5v-926q0 -114 80.5 -195t195.5 -81q114 0 194 81t80 195v926q0 13 10.5 22.5t24.5 9.5q12 0 22.5 -9.5t10.5 -22.5v-926q0 -141 -100.5 -241.5t-241.5 -100.5t-241.5 100.5t-100.5 241.5zM284 1464.5 q0 13.5 11 24.5l250 250q9 9 23 9t24 -9q9 -9 9 -23.5t-9 -23.5l-252 -250q-9 -9 -22.5 -9t-22.5 9q-11 9 -11 22.5z" />
<glyph unicode="&#xdb;" horiz-adv-x="854" d="M2 342v926q0 13 9.5 22.5t23.5 9.5t23.5 -9.5t9.5 -22.5v-926q0 -114 80.5 -195t195.5 -81q114 0 194 81t80 195v926q0 13 10.5 22.5t24.5 9.5q12 0 22.5 -9.5t10.5 -22.5v-926q0 -141 -100.5 -241.5t-241.5 -100.5t-241.5 100.5t-100.5 241.5zM65 1461.5q0 14.5 9 23.5 l252 250q9 9 22.5 9t22.5 -9l252 -250q9 -9 9 -23.5t-9 -23.5q-11 -9 -25 -9t-23 9l-227 227l-227 -227q-9 -9 -23 -9t-24 9q-9 9 -9 23.5z" />
<glyph unicode="&#xdc;" horiz-adv-x="854" d="M2 342v926q0 13 9.5 22.5t23.5 9.5t23.5 -9.5t9.5 -22.5v-926q0 -114 80.5 -195t195.5 -81q114 0 194 81t80 195v926q0 13 10.5 22.5t24.5 9.5q12 0 22.5 -9.5t10.5 -22.5v-926q0 -141 -100.5 -241.5t-241.5 -100.5t-241.5 100.5t-100.5 241.5zM193 1460v299q0 13 10 23 t22 10q13 0 23 -10t10 -23v-299q0 -14 -10 -23.5t-23 -9.5q-12 0 -22 10t-10 23zM422 1460v299q0 13 10 23t23 10t22.5 -9.5t9.5 -23.5v-299q0 -14 -9.5 -23.5t-22.5 -9.5t-23 9.5t-10 23.5z" />
<glyph unicode="&#xdd;" />
<glyph unicode="&#xde;" />
<glyph unicode="&#xdf;" />
<glyph unicode="&#xe0;" horiz-adv-x="849" d="M2 342q0 141 100.5 241.5t241.5 100.5t241.5 -100.5t100.5 -241.5v-309q0 -13 -10.5 -23t-22.5 -10q-14 0 -24.5 10t-10.5 23v108q-46 -66 -118 -103.5t-156 -37.5q-141 0 -241.5 100.5t-100.5 241.5zM68 342q0 -114 80.5 -195t195.5 -81q114 0 194 81t80 195t-80 195 t-194 81q-115 0 -195.5 -81t-80.5 -195zM112 1215.5q0 14.5 9 23.5t23 9t24 -9l250 -250q9 -10 9 -24t-9 -23t-22.5 -9t-24.5 9l-250 250q-9 9 -9 23.5z" />
<glyph unicode="&#xe1;" horiz-adv-x="854" d="M2 342q0 141 100.5 241.5t241.5 100.5t241.5 -100.5t100.5 -241.5v-309q0 -13 -10.5 -23t-22.5 -10q-14 0 -24.5 10t-10.5 23v108q-46 -66 -118 -103.5t-156 -37.5q-141 0 -241.5 100.5t-100.5 241.5zM68 342q0 -114 80.5 -195t195.5 -81q114 0 194 81t80 195t-80 195 t-194 81q-115 0 -195.5 -81t-80.5 -195zM296 964.5q0 13.5 9 24.5l250 250q11 9 24.5 9t22.5 -9t9 -23.5t-9 -23.5l-250 -250q-10 -9 -24 -9t-23 9t-9 22.5z" />
<glyph unicode="&#xe2;" horiz-adv-x="854" d="M2 342q0 141 100.5 241.5t241.5 100.5t241.5 -100.5t100.5 -241.5v-309q0 -13 -10.5 -23t-22.5 -10q-14 0 -24.5 10t-10.5 23v108q-46 -66 -118 -103.5t-156 -37.5q-141 0 -241.5 100.5t-100.5 241.5zM67 965.5q0 14.5 9 23.5l250 250q9 9 23 9t24 -9l250 -250 q9 -9 9 -23.5t-9 -23.5t-23 -9t-25 9l-227 227l-227 -227q-9 -9 -22.5 -9t-22.5 9t-9 23.5zM68 342q0 -114 80.5 -195t195.5 -81q114 0 194 81t80 195t-80 195t-194 81q-115 0 -195.5 -81t-80.5 -195z" />
<glyph unicode="&#xe3;" horiz-adv-x="843" d="M2 342q0 141 100.5 241.5t241.5 100.5t241.5 -100.5t100.5 -241.5v-309q0 -13 -10.5 -23t-22.5 -10q-14 0 -24.5 10t-10.5 23v108q-46 -66 -118 -103.5t-156 -37.5q-141 0 -241.5 100.5t-100.5 241.5zM68 342q0 -114 80.5 -195t195.5 -81q114 0 194 81t80 195t-80 195 t-194 81q-115 0 -195.5 -81t-80.5 -195zM143 971q0 12 10 22.5t23 10.5h354q13 0 23 -10.5t10 -22.5q0 -13 -9.5 -23t-23.5 -10h-354q-14 0 -23.5 10t-9.5 23z" />
<glyph unicode="&#xe4;" horiz-adv-x="854" d="M2 342q0 141 100.5 241.5t241.5 100.5t241.5 -100.5t100.5 -241.5v-309q0 -13 -10.5 -23t-22.5 -10q-14 0 -24.5 10t-10.5 23v108q-46 -66 -118 -103.5t-156 -37.5q-141 0 -241.5 100.5t-100.5 241.5zM68 342q0 -114 80.5 -195t195.5 -81q114 0 194 81t80 195t-80 195 t-194 81q-115 0 -195.5 -81t-80.5 -195zM217 969v299q0 13 9.5 22.5t23.5 9.5t23.5 -9.5t9.5 -22.5v-299q0 -13 -9.5 -23t-23.5 -10t-23.5 10t-9.5 23zM446 969v299q0 13 9.5 22.5t23.5 9.5q12 0 22.5 -9.5t10.5 -22.5v-299q0 -13 -10.5 -23t-22.5 -10q-13 0 -23 10t-10 23z " />
<glyph unicode="&#xe5;" horiz-adv-x="858" d="M2 342q0 141 100.5 241.5t241.5 100.5t241.5 -100.5t100.5 -241.5v-309q0 -13 -10.5 -23t-22.5 -10q-14 0 -24.5 10t-10.5 23v108q-46 -66 -118 -103.5t-156 -37.5q-141 0 -241.5 100.5t-100.5 241.5zM68 342q0 -114 80.5 -195t195.5 -81q114 0 194 81t80 195t-80 195 t-194 81q-115 0 -195.5 -81t-80.5 -195zM158 1014q0 78 54.5 133t131.5 55q78 0 133 -55t55 -133q0 -77 -55 -132t-133 -55q-76 0 -131 55t-55 132zM223 1014q0 -51 35.5 -86t85.5 -35q51 0 87 35t36 86t-36 86t-87 35q-50 0 -85.5 -35t-35.5 -86z" />
<glyph unicode="&#xe6;" />
<glyph unicode="&#xe7;" horiz-adv-x="739" d="M2 342q0 141 100.5 241.5t241.5 100.5q137 0 242 -100q9 -11 9 -24.5t-9 -22.5q-10 -9 -24 -9t-23 9q-78 81 -195 81q-115 0 -195.5 -81t-80.5 -195t80.5 -195t195.5 -81q66 0 125 30l-123 121q-9 11 -9 24.5t9 22.5t23 9t24 -9l131 -131q1 1 7 5.5t8 8.5q9 9 23 9t24 -9 q9 -11 9 -24.5t-9 -22.5q-3 -2 -15 -14l29 -31q10 -9 10 -22.5t-10 -22.5q-10 -10 -22 -10q-13 0 -23 10l-39 37q-77 -47 -172 -47q-141 0 -241.5 100.5t-100.5 241.5z" />
<glyph unicode="&#xe8;" horiz-adv-x="811" d="M2 342q0 141 100.5 241.5t241.5 100.5t241.5 -100.5t100.5 -241.5q0 -13 -10.5 -23t-22.5 -10h-583q12 -103 90.5 -173t183.5 -70q117 0 195 81q9 9 23 9t24 -9q9 -11 9 -24.5t-9 -22.5q-100 -100 -242 -100q-141 0 -241.5 100.5t-100.5 241.5zM70 375h546 q-11 103 -89 173t-183 70t-183.5 -70t-90.5 -173zM93 1215.5q0 14.5 9 23.5q10 9 24.5 9t23.5 -9l249 -250q9 -10 9 -24t-9 -23t-22.5 -9t-22.5 9l-252 250q-9 9 -9 23.5z" />
<glyph unicode="&#xe9;" horiz-adv-x="808" d="M2 342q0 141 100.5 241.5t241.5 100.5t241.5 -100.5t100.5 -241.5q0 -13 -10.5 -23t-22.5 -10h-583q12 -103 90.5 -173t183.5 -70q117 0 195 81q9 9 23 9t24 -9q9 -11 9 -24.5t-9 -22.5q-100 -100 -242 -100q-141 0 -241.5 100.5t-100.5 241.5zM70 375h546 q-11 103 -89 173t-183 70t-183.5 -70t-90.5 -173zM278 964.5q0 13.5 9 24.5l252 250q9 9 22.5 9t22.5 -9t9 -23.5t-9 -23.5l-250 -250q-9 -9 -22.5 -9t-24.5 9q-9 9 -9 22.5z" />
<glyph unicode="&#xea;" horiz-adv-x="811" d="M2 342q0 141 100.5 241.5t241.5 100.5t241.5 -100.5t100.5 -241.5q0 -13 -10.5 -23t-22.5 -10h-583q12 -103 90.5 -173t183.5 -70q117 0 195 81q9 9 23 9t24 -9q9 -11 9 -24.5t-9 -22.5q-100 -100 -242 -100q-141 0 -241.5 100.5t-100.5 241.5zM57 964.5q0 13.5 9 24.5 l251 250q9 9 22.5 9t22.5 -9l252 -250q9 -10 9 -24t-9 -23q-10 -9 -24 -9t-23 9l-227 227l-227 -227q-9 -9 -23 -9t-24 9q-9 9 -9 22.5zM70 375h546q-11 103 -89 173t-183 70t-183.5 -70t-90.5 -173z" />
<glyph unicode="&#xeb;" horiz-adv-x="808" d="M2 342q0 141 100.5 241.5t241.5 100.5t241.5 -100.5t100.5 -241.5q0 -13 -10.5 -23t-22.5 -10h-583q12 -103 90.5 -173t183.5 -70q117 0 195 81q9 9 23 9t24 -9q9 -11 9 -24.5t-9 -22.5q-100 -100 -242 -100q-141 0 -241.5 100.5t-100.5 241.5zM70 375h546 q-11 103 -89 173t-183 70t-183.5 -70t-90.5 -173zM199 969v299q0 14 9.5 23t22.5 9q14 0 23.5 -9.5t9.5 -22.5v-299q0 -13 -10 -23t-23 -10t-22.5 9.5t-9.5 23.5zM428 969v299q0 13 9.5 22.5t23.5 9.5t23.5 -9.5t9.5 -22.5v-299q0 -13 -10 -23t-23 -10t-23 10t-10 23z" />
<glyph unicode="&#xec;" horiz-adv-x="466" d="M3 1221.5q0 14.5 9 23.5t22.5 9t22.5 -9l252 -250q9 -11 9 -24.5t-9 -22.5q-10 -9 -24 -9t-23 9l-250 250q-9 9 -9 23.5zM229 33v618q0 12 10 22.5t23 10.5q12 0 22.5 -10.5t10.5 -22.5v-618q0 -13 -10.5 -23t-22.5 -10q-14 0 -23.5 10t-9.5 23z" />
<glyph unicode="&#xed;" horiz-adv-x="444" d="M3 964.5q0 13.5 9 24.5l250 250q9 9 23 9t24 -9q9 -9 9 -23.5t-9 -23.5l-252 -250q-9 -9 -22.5 -9t-22.5 9t-9 22.5zM27 33v618q0 12 9.5 22.5t22.5 10.5q12 0 22.5 -10.5t10.5 -22.5v-618q0 -13 -10.5 -23t-22.5 -10q-13 0 -22.5 9.5t-9.5 23.5z" />
<glyph unicode="&#xee;" horiz-adv-x="690" d="M3 964.5q0 13.5 9 24.5l250 250q9 9 23 9t24 -9l250 -250q9 -10 9 -24t-9 -23t-22.5 -9t-24.5 9l-227 227l-228 -227q-9 -9 -22.5 -9t-22.5 9t-9 22.5zM256 33v618q0 12 10 22.5t23 10.5t23 -10.5t10 -22.5v-618q0 -13 -10 -23t-23 -10t-23 10t-10 23z" />
<glyph unicode="&#xef;" horiz-adv-x="450" d="M2 969v299q0 13 9.5 22.5t23.5 9.5t23.5 -9.5t9.5 -22.5v-299q0 -13 -10 -23t-23 -10t-23 10t-10 23zM125 33v618q0 12 10 22.5t23 10.5t22.5 -10.5t9.5 -22.5v-618q0 -14 -9.5 -23.5t-22.5 -9.5q-14 0 -23.5 10t-9.5 23zM231 969v299q0 13 9.5 22.5t23.5 9.5t23.5 -9.5 t9.5 -22.5v-299q0 -13 -9.5 -23t-23.5 -10t-23.5 10t-9.5 23z" />
<glyph unicode="&#xf0;" />
<glyph unicode="&#xf1;" horiz-adv-x="851" d="M2 33v307q0 141 100.5 240.5t241.5 99.5t241.5 -99.5t100.5 -240.5v-307q0 -13 -10.5 -23t-22.5 -10q-14 0 -24.5 10t-10.5 23v307q0 114 -80 194t-194 80q-115 0 -195.5 -80t-80.5 -194v-307q0 -13 -10 -23t-23 -10t-23 10t-10 23zM133 971q0 12 10 22.5t23 10.5h354 q13 0 23 -10.5t10 -22.5q0 -13 -9.5 -23t-23.5 -10h-354q-14 0 -23.5 10t-9.5 23z" />
<glyph unicode="&#xf2;" horiz-adv-x="841" d="M2 342q0 141 100.5 241.5t241.5 100.5t241.5 -100.5t100.5 -241.5t-100.5 -241.5t-241.5 -100.5t-241.5 100.5t-100.5 241.5zM68 342q0 -114 80.5 -195t195.5 -81q114 0 194 81t80 195t-80 195t-194 81q-115 0 -195.5 -81t-80.5 -195zM104 1215.5q0 14.5 9 23.5t22.5 9 t24.5 -9l250 -250q9 -10 9 -24t-9 -23t-24 -9t-24 9l-249 250q-9 9 -9 23.5z" />
<glyph unicode="&#xf3;" horiz-adv-x="845" d="M2 342q0 141 100.5 241.5t241.5 100.5t241.5 -100.5t100.5 -241.5t-100.5 -241.5t-241.5 -100.5t-241.5 100.5t-100.5 241.5zM68 342q0 -114 80.5 -195t195.5 -81q114 0 194 81t80 195t-80 195t-194 81q-115 0 -195.5 -81t-80.5 -195zM286 964.5q0 13.5 9 24.5l250 250 q9 9 23.5 9t23.5 -9t9 -23.5t-9 -23.5l-250 -250q-10 -9 -24 -9t-23 9t-9 22.5z" />
<glyph unicode="&#xf4;" horiz-adv-x="847" d="M2 342q0 141 100.5 241.5t241.5 100.5t241.5 -100.5t100.5 -241.5t-100.5 -241.5t-241.5 -100.5t-241.5 100.5t-100.5 241.5zM56 964.5q0 13.5 10 24.5l249 250q9 9 22.5 9t24.5 -9l250 -250q9 -10 9 -24t-9 -23t-23.5 -9t-23.5 9l-227 227l-227 -227q-9 -9 -22.5 -9 t-22.5 9q-10 9 -10 22.5zM68 342q0 -114 80.5 -195t195.5 -81q114 0 194 81t80 195t-80 195t-194 81q-115 0 -195.5 -81t-80.5 -195z" />
<glyph unicode="&#xf5;" horiz-adv-x="837" d="M2 342q0 141 100.5 241.5t241.5 100.5t241.5 -100.5t100.5 -241.5t-100.5 -241.5t-241.5 -100.5t-241.5 100.5t-100.5 241.5zM68 342q0 -114 80.5 -195t195.5 -81q114 0 194 81t80 195t-80 195t-194 81q-115 0 -195.5 -81t-80.5 -195zM133 971q0 12 10 22.5t23 10.5h354 q13 0 23 -10.5t10 -22.5q0 -13 -9.5 -23t-23.5 -10h-354q-14 0 -23.5 10t-9.5 23z" />
<glyph unicode="&#xf6;" horiz-adv-x="845" d="M2 342q0 141 100.5 241.5t241.5 100.5t241.5 -100.5t100.5 -241.5t-100.5 -241.5t-241.5 -100.5t-241.5 100.5t-100.5 241.5zM68 342q0 -114 80.5 -195t195.5 -81q114 0 194 81t80 195t-80 195t-194 81q-115 0 -195.5 -81t-80.5 -195zM199 969v299q0 14 9.5 23t22.5 9 q14 0 23.5 -9.5t9.5 -22.5v-299q0 -13 -10 -23t-23 -10t-22.5 9.5t-9.5 23.5zM426 969v299q0 13 10.5 22.5t22.5 9.5q14 0 23.5 -9.5t9.5 -22.5v-299q0 -13 -10 -23t-23 -10q-12 0 -22.5 10t-10.5 23z" />
<glyph unicode="&#xf7;" />
<glyph unicode="&#xf8;" />
<glyph unicode="&#xf9;" horiz-adv-x="843" d="M2 342v309q0 12 10 22.5t23 10.5t23 -10.5t10 -22.5v-309q0 -114 80.5 -195t195.5 -81q114 0 194 81t80 195v309q0 12 11 22.5t24 10.5q12 0 22.5 -10.5t10.5 -22.5v-309q0 -141 -100.5 -241.5t-241.5 -100.5t-241.5 100.5t-100.5 241.5zM102 1215.5q0 14.5 9 23.5 t22.5 9t24.5 -9l250 -250q9 -10 9 -24t-9 -23t-24 -9t-24 9l-249 250q-9 9 -9 23.5z" />
<glyph unicode="&#xfa;" horiz-adv-x="847" d="M2 342v309q0 12 10 22.5t23 10.5t23 -10.5t10 -22.5v-309q0 -114 80.5 -195t195.5 -81q114 0 194 81t80 195v309q0 12 11 22.5t24 10.5q12 0 22.5 -10.5t10.5 -22.5v-309q0 -141 -100.5 -241.5t-241.5 -100.5t-241.5 100.5t-100.5 241.5zM286 964.5q0 13.5 9 24.5 l250 250q9 9 23.5 9t23.5 -9t9 -23.5t-9 -23.5l-250 -250q-10 -9 -24 -9t-23 9t-9 22.5z" />
<glyph unicode="&#xfb;" horiz-adv-x="849" d="M2 342v309q0 12 10 22.5t23 10.5t23 -10.5t10 -22.5v-309q0 -114 80.5 -195t195.5 -81q114 0 194 81t80 195v309q0 12 11 22.5t24 10.5q12 0 22.5 -10.5t10.5 -22.5v-309q0 -141 -100.5 -241.5t-241.5 -100.5t-241.5 100.5t-100.5 241.5zM59 964.5q0 13.5 9 24.5l249 250 q11 9 25 9t23 -9l249 -250q10 -11 10 -24.5t-10 -22.5q-9 -9 -22.5 -9t-22.5 9l-227 227l-227 -227q-9 -9 -23.5 -9t-23.5 9t-9 22.5z" />
<glyph unicode="&#xfc;" horiz-adv-x="847" d="M2 342v309q0 12 10 22.5t23 10.5t23 -10.5t10 -22.5v-309q0 -114 80.5 -195t195.5 -81q114 0 194 81t80 195v309q0 12 11 22.5t24 10.5q12 0 22.5 -10.5t10.5 -22.5v-309q0 -141 -100.5 -241.5t-241.5 -100.5t-241.5 100.5t-100.5 241.5zM207 969v299q0 13 9.5 22.5 t23.5 9.5t23 -9t9 -23v-299q0 -14 -9.5 -23.5t-22.5 -9.5q-14 0 -23.5 10t-9.5 23zM434 969v299q0 13 10.5 22.5t22.5 9.5q14 0 23.5 -9.5t9.5 -22.5v-299q0 -13 -10 -23t-23 -10q-12 0 -22.5 10t-10.5 23z" />
<glyph unicode="&#xfd;" />
<glyph unicode="&#xfe;" />
<glyph unicode="&#xff;" />
<glyph unicode="&#x178;" />
<glyph unicode="&#x2018;" />
<glyph unicode="&#x2019;" />
<glyph unicode="&#x201c;" />
<glyph unicode="&#x201d;" />
<glyph unicode="&#x20ac;" horiz-adv-x="804" d="M2 342v616q0 141 99.5 241.5t240.5 100.5t241.5 -100.5t100.5 -241.5q0 -13 -9.5 -22.5t-23.5 -9.5t-23.5 9.5t-9.5 22.5q0 116 -80.5 196.5t-195.5 80.5q-114 0 -194 -81t-80 -196v-274h583q13 0 23 -10.5t10 -22.5q0 -13 -10 -23t-23 -10h-583v-276q0 -114 80 -195 t194 -81q115 0 195.5 81t80.5 195q0 14 10 23.5t23 9.5t23 -9.5t10 -23.5q0 -141 -100.5 -241.5t-241.5 -100.5t-240.5 100.5t-99.5 241.5z" />
<glyph unicode="&#x25fc;" horiz-adv-x="686" d="M0 0v686h686v-686h-686z" />
</font>
</defs>
</svg>
